<?xml version="1.0" encoding="UTF-8" standalone="no"?>
<!-- Generator: Adobe Illustrator 16.0.0, SVG Export Plug-In . SVG Version: 6.00 Build 0)  -->

<svg
   xmlns:dc="http://purl.org/dc/elements/1.1/"
   xmlns:cc="http://creativecommons.org/ns#"
   xmlns:rdf="http://www.w3.org/1999/02/22-rdf-syntax-ns#"
   xmlns:svg="http://www.w3.org/2000/svg"
   xmlns="http://www.w3.org/2000/svg"
   xmlns:sodipodi="http://sodipodi.sourceforge.net/DTD/sodipodi-0.dtd"
   xmlns:inkscape="http://www.inkscape.org/namespaces/inkscape"
   version="1.1"
   id="Capa_1"
   x="0px"
   y="0px"
   width="40"
   height="40"
   viewBox="0 0 39.999999 39.999999"
   xml:space="preserve"
   sodipodi:docname="codepen.svg"
   inkscape:version="0.92.4 (unknown)"><metadata
   id="metadata41"><rdf:RDF><cc:Work
       rdf:about=""><dc:format>image/svg+xml</dc:format><dc:type
         rdf:resource="http://purl.org/dc/dcmitype/StillImage" /><dc:title></dc:title></cc:Work></rdf:RDF></metadata><defs
   id="defs39" /><sodipodi:namedview
   pagecolor="#ffffff"
   bordercolor="#666666"
   borderopacity="1"
   objecttolerance="10"
   gridtolerance="10"
   guidetolerance="10"
   inkscape:pageopacity="0"
   inkscape:pageshadow="2"
   inkscape:window-width="1366"
   inkscape:window-height="709"
   id="namedview37"
   showgrid="false"
   inkscape:zoom="7.4530236"
   inkscape:cx="2.1467797"
   inkscape:cy="15.8325"
   inkscape:window-x="0"
   inkscape:window-y="36"
   inkscape:window-maximized="1"
   inkscape:current-layer="layer2" />
<g
   inkscape:groupmode="layer"
   id="layer2"
   inkscape:label="back 1"><path
     sodipodi:type="star"
     style="opacity:1;fill:#e5e5e5;fill-opacity:1;stroke:#363636;stroke-width:2.5;stroke-linecap:butt;stroke-linejoin:round;stroke-miterlimit:4;stroke-dasharray:none;stroke-opacity:1;paint-order:stroke fill markers"
     id="path852"
     sodipodi:sides="8"
     sodipodi:cx="19.991886"
     sodipodi:cy="20.008114"
     sodipodi:r1="18.289017"
     sodipodi:r2="16.896849"
     sodipodi:arg1="-0.39140513"
     sodipodi:arg2="0.0012939536"
     inkscape:flatsided="true"
     inkscape:rounded="0"
     inkscape:randomized="0"
     d="M 36.897776,13.03108 36.879664,27.028875 26.96892,36.914004 12.971125,36.895892 3.0859958,26.985148 3.1041083,12.987352 13.014852,3.1022235 27.012648,3.120336 Z"
     transform="matrix(1.0885509,0,0,1.0925066,-1.7702989,-1.7837975)" /></g><g
   id="g4"
   transform="translate(4.0252119,4.0414396)">
	<path
   d="M 16.878,0.415 C 16.024,-0.15 14.91,-0.137 14.069,0.449 L 1.485,9.214 C 0.814,9.682 0.414,10.447 0.414,11.266 v 9.444 c 0,0.84 0.421,1.623 1.122,2.086 l 12.79,8.455 c 0.836,0.553 1.922,0.553 2.758,0 l 13.044,-8.618 c 0.7,-0.463 1.122,-1.246 1.122,-2.086 v -9.279 c 0,-0.839 -0.421,-1.622 -1.121,-2.085 z M 26.621,10.645 21.8,13.882 17.279,10.594 17.25,4.127 Z M 13.979,4.133 v 6.329 l -4.633,3.24 -4.621,-3.099 z m -10.521,9.589 2.991,2.004 -2.991,2.093 z m 10.6,13.493 -9.331,-6.258 4.661,-3.258 4.67,3.133 z m -1.772,-11.541 3.021,-2.113 3.519,2.313 -3.119,2.095 z m 5.068,11.541 V 20.83 l 4.463,-2.991 4.805,3.159 z m 10.6,-9.288 -3.168,-2.082 3.168,-2.125 z"
   id="path2"
   inkscape:connector-curvature="0" />
</g>
<g
   id="g6"
   transform="translate(0,8.3349991)">
</g>
<g
   id="g8"
   transform="translate(0,8.3349991)">
</g>
<g
   id="g10"
   transform="translate(0,8.3349991)">
</g>
<g
   id="g12"
   transform="translate(0,8.3349991)">
</g>
<g
   id="g14"
   transform="translate(0,8.3349991)">
</g>
<g
   id="g16"
   transform="translate(0,8.3349991)">
</g>
<g
   id="g18"
   transform="translate(0,8.3349991)">
</g>
<g
   id="g20"
   transform="translate(0,8.3349991)">
</g>
<g
   id="g22"
   transform="translate(0,8.3349991)">
</g>
<g
   id="g24"
   transform="translate(0,8.3349991)">
</g>
<g
   id="g26"
   transform="translate(0,8.3349991)">
</g>
<g
   id="g28"
   transform="translate(0,8.3349991)">
</g>
<g
   id="g30"
   transform="translate(0,8.3349991)">
</g>
<g
   id="g32"
   transform="translate(0,8.3349991)">
</g>
<g
   id="g34"
   transform="translate(0,8.3349991)">
</g>
<g
   inkscape:groupmode="layer"
   id="layer1"
   inkscape:label="back"
   transform="translate(0,8.3349991)" /></svg>