<?xml version="1.0" encoding="UTF-8" standalone="no"?>
<!-- Created with Inkscape (http://www.inkscape.org/) -->

<svg
   xmlns:dc="http://purl.org/dc/elements/1.1/"
   xmlns:cc="http://creativecommons.org/ns#"
   xmlns:rdf="http://www.w3.org/1999/02/22-rdf-syntax-ns#"
   xmlns:svg="http://www.w3.org/2000/svg"
   xmlns="http://www.w3.org/2000/svg"
   xmlns:xlink="http://www.w3.org/1999/xlink"
   xmlns:sodipodi="http://sodipodi.sourceforge.net/DTD/sodipodi-0.dtd"
   xmlns:inkscape="http://www.inkscape.org/namespaces/inkscape"
   width="210mm"
   height="278mm"
   viewBox="0 0 210 278"
   version="1.1"
   id="svg8"
   inkscape:version="0.92.4 (unknown)"
   sodipodi:docname="fdf.svg">
  <defs
     id="defs2">
    <linearGradient
       inkscape:collect="always"
       id="linearGradient3749">
      <stop
         style="stop-color:hsl(322, 100%, 66%);stop-opacity:1;"
         offset="0"
         id="pink" />
      <stop
         style="stop-color:#9a51ff;stop-opacity:1"
         offset="1"
         id="violet" />
    </linearGradient>
    <inkscape:perspective
       sodipodi:type="inkscape:persp3d"
       inkscape:vp_x="239.6369 : -707.9941 : 1"
       inkscape:vp_y="0 : 999.99992 : 0"
       inkscape:vp_z="210 : 148.50002 : 1"
       inkscape:persp3d-origin="105 : 98.999997 : 1"
       id="perspective10" />
    <linearGradient
       inkscape:collect="always"
       xlink:href="#linearGradient3749"
       id="linearGradient3751"
       x1="63.5"
       y1="12.005953"
       x2="194.27975"
       y2="181.33928"
       gradientUnits="userSpaceOnUse"
       gradientTransform="matrix(0.81859294,0,0,0.85589072,38.655535,17.481701)" />
  </defs>
  <sodipodi:namedview
     id="base"
     pagecolor="#ffffff"
     bordercolor="#666666"
     borderopacity="1.0"
     inkscape:pageopacity="0.0"
     inkscape:pageshadow="2"
     inkscape:zoom="0.9899495"
     inkscape:cx="314.16914"
     inkscape:cy="730.48036"
     inkscape:document-units="mm"
     inkscape:current-layer="layer1"
     showgrid="false"
     inkscape:window-width="1366"
     inkscape:window-height="709"
     inkscape:window-x="0"
     inkscape:window-y="36"
     inkscape:window-maximized="1" />
  <metadata
     id="metadata5">
    <rdf:RDF>
      <cc:Work
         rdf:about="">
        <dc:format>image/svg+xml</dc:format>
        <dc:type
           rdf:resource="http://purl.org/dc/dcmitype/StillImage" />
        <dc:title></dc:title>
      </cc:Work>
    </rdf:RDF>
  </metadata>
  <g
     inkscape:groupmode="layer"
     id="layer2"
     inkscape:label="Layer 2"
     transform="translate(0,-19)">
    <path
       style="fill:#f7fafe;fill-opacity:0.5;stroke:none;stroke-width:0.22613624px;stroke-linecap:butt;stroke-linejoin:miter;stroke-opacity:1"
       d="M 107.96335,58.835269 C 47.774602,88.677114 4.7034914,110.11915 -1.6037682,113.32454 L -2.3611446,17.987737 H 111.41363 Z"
       id="path7932"
       inkscape:connector-curvature="0"
       sodipodi:nodetypes="ccccc" />
  </g>
  <g
     inkscape:groupmode="layer"
     id="layer3"
     inkscape:label="Layer 3"
     transform="translate(0,-19)">
    <path
       style="opacity:0.99199997;fill:#f7fafe;fill-opacity:0.5;fill-rule:nonzero;stroke:none;stroke-width:0.3224372;stroke-miterlimit:4;stroke-dasharray:none;stroke-opacity:1"
       d="m 0.62436442,227.8807 c -0.0699575,-37.71985 -0.0366971,-69.28163 0.0739064,-70.13728 l 0.2011154,-1.55575 2.29482228,4.14866 c 2.3066509,4.17005 5.5326827,9.8947 10.8128295,19.18756 1.566583,2.75713 6.759523,11.93604 11.53986,20.39759 7.012723,12.41301 9.069695,15.76576 10.649373,17.3579 4.839954,4.87816 10.351775,5.08656 18.909242,0.71501 2.881244,-1.47189 17.147996,-10.15128 17.333117,-10.54488 0.0694,-0.14734 0.366938,-0.26788 0.661457,-0.26788 0.294502,0 0.535454,-0.15557 0.535454,-0.34572 0,-0.19014 0.255145,-0.34572 0.56698,-0.34572 0.311834,0 0.566963,-0.15557 0.566963,-0.34571 0,-0.19016 0.240952,-0.34573 0.535454,-0.34573 0.294518,0 0.592177,-0.12853 0.661473,-0.28561 0.0694,-0.15708 1.482937,-1.1192 3.141445,-2.13804 1.658492,-1.01882 11.098457,-8.20853 20.977684,-15.9771 9.87922,-7.76858 18.61723,-14.62411 19.4178,-15.23449 0.80059,-0.61039 1.91837,-1.49874 2.48397,-1.97411 0.56562,-0.47537 1.84034,-1.48661 2.83271,-2.2472 0.99239,-0.76057 2.18351,-1.69402 2.64694,-2.07433 0.46341,-0.3803 1.65404,-1.31374 2.64582,-2.07433 0.99178,-0.76058 2.18372,-1.69403 2.64877,-2.07433 0.46504,-0.3803 1.74557,-1.39152 2.84562,-2.24719 3.03721,-2.36244 3.51405,-2.7387 4.74119,-3.74103 0.62365,-0.5094 1.89932,-1.5247 2.83483,-2.25618 0.93547,-0.73149 2.63636,-2.0723 3.77975,-2.97958 9.59516,-7.61385 9.60058,-7.61753 10.2537,-6.99465 0.33842,0.32275 4.83539,5.64301 9.99329,11.82278 12.06242,14.45216 15.93205,18.95588 17.13997,19.94852 2.14846,1.7656 6.5076,4.20407 8.7798,4.91139 4.78356,1.48905 10.64461,1.2271 14.6804,-0.65611 0.81883,-0.38209 1.7507,-0.69472 2.07081,-0.69472 0.52176,0 0.58202,6.06778 0.58202,58.59986 v 58.59983 l -47.34151,0.007 c -26.03784,0.004 -73.222893,0.10099 -104.855675,0.21504 l -57.51418158,0.20738 z"
       id="path7941"
       inkscape:connector-curvature="0" />
  </g>
  <g
     inkscape:label="Layer 1"
     inkscape:groupmode="layer"
     id="layer1"
     transform="translate(0,-19)">
    <path
       style="fill:url(#linearGradient3751);fill-opacity:1;stroke:none;stroke-width:0.197179px;stroke-linecap:butt;stroke-linejoin:miter;stroke-opacity:1"
       d="m 72.493519,17.432545 c -10.03566,9.265116 3.900683,22.903144 3.900683,22.903144 12.230663,15.98742 88.248298,119.617341 107.071108,143.587641 12.39174,11.83721 22.47125,6.90753 27.30686,4.06226 L 210.06793,17.405282 Z"
       id="path32"
       inkscape:connector-curvature="0"
       sodipodi:nodetypes="cccccc" />
    <path
       style="fill:none;stroke:#000000;stroke-width:0.26458332px;stroke-linecap:butt;stroke-linejoin:miter;stroke-opacity:1"
       d="m 208.65549,193.86687 c 0,0 0,0 0,0 z"
       id="path7927"
       inkscape:connector-curvature="0" />
  </g>
</svg>
