<?xml version="1.0" encoding="UTF-8" standalone="no"?>
<!-- Generator: Adobe Illustrator 16.0.0, SVG Export Plug-In . SVG Version: 6.00 Build 0)  -->

<svg
   xmlns:dc="http://purl.org/dc/elements/1.1/"
   xmlns:cc="http://creativecommons.org/ns#"
   xmlns:rdf="http://www.w3.org/1999/02/22-rdf-syntax-ns#"
   xmlns:svg="http://www.w3.org/2000/svg"
   xmlns="http://www.w3.org/2000/svg"
   xmlns:sodipodi="http://sodipodi.sourceforge.net/DTD/sodipodi-0.dtd"
   xmlns:inkscape="http://www.inkscape.org/namespaces/inkscape"
   version="1.1"
   id="Capa_1"
   x="0px"
   y="0px"
   width="40"
   height="40"
   viewBox="0 0 39.999999 39.999999"
   xml:space="preserve"
   sodipodi:docname="git.svg"
   inkscape:version="0.92.4 (unknown)"><metadata
   id="metadata41"><rdf:RDF><cc:Work
       rdf:about=""><dc:format>image/svg+xml</dc:format><dc:type
         rdf:resource="http://purl.org/dc/dcmitype/StillImage" /><dc:title></dc:title></cc:Work></rdf:RDF></metadata><defs
   id="defs39" /><sodipodi:namedview
   pagecolor="#ffffff"
   bordercolor="#666666"
   borderopacity="1"
   objecttolerance="10"
   gridtolerance="10"
   guidetolerance="10"
   inkscape:pageopacity="0"
   inkscape:pageshadow="2"
   inkscape:window-width="1366"
   inkscape:window-height="709"
   id="namedview37"
   showgrid="false"
   inkscape:zoom="7.4530236"
   inkscape:cx="2.1467797"
   inkscape:cy="15.8325"
   inkscape:window-x="0"
   inkscape:window-y="36"
   inkscape:window-maximized="1"
   inkscape:current-layer="Capa_1" />
<g
   inkscape:groupmode="layer"
   id="layer2"
   inkscape:label="back 1"><path
     sodipodi:type="star"
     style="opacity:1;fill:#e5e5e5;fill-opacity:1;stroke:#363636;stroke-width:2.5;stroke-linecap:butt;stroke-linejoin:round;stroke-miterlimit:4;stroke-dasharray:none;stroke-opacity:1;paint-order:stroke fill markers"
     id="path852"
     sodipodi:sides="8"
     sodipodi:cx="19.991886"
     sodipodi:cy="20.008114"
     sodipodi:r1="18.289017"
     sodipodi:r2="16.896849"
     sodipodi:arg1="-0.39140513"
     sodipodi:arg2="0.0012939536"
     inkscape:flatsided="true"
     inkscape:rounded="0"
     inkscape:randomized="0"
     d="M 36.897776,13.03108 36.879664,27.028875 26.96892,36.914004 12.971125,36.895892 3.0859958,26.985148 3.1041083,12.987352 13.014852,3.1022235 27.012648,3.120336 Z"
     transform="matrix(1.0885509,0,0,1.0925066,-1.7702989,-1.7837975)" /></g>
<g
   id="g6"
   transform="translate(0,8.3349991)">
</g>
<g
   id="g8"
   transform="translate(0,8.3349991)">
</g>
<g
   id="g10"
   transform="translate(0,8.3349991)">
</g>
<g
   id="g12"
   transform="translate(0,8.3349991)">
</g>
<g
   id="g14"
   transform="translate(0,8.3349991)">
</g>
<g
   id="g16"
   transform="translate(0,8.3349991)">
</g>
<g
   id="g18"
   transform="translate(0,8.3349991)">
</g>
<g
   id="g20"
   transform="translate(0,8.3349991)">
</g>
<g
   id="g22"
   transform="translate(0,8.3349991)">
</g>
<g
   id="g24"
   transform="translate(0,8.3349991)">
</g>
<g
   id="g26"
   transform="translate(0,8.3349991)">
</g>
<g
   id="g28"
   transform="translate(0,8.3349991)">
</g>
<g
   id="g30"
   transform="translate(0,8.3349991)">
</g>
<g
   id="g32"
   transform="translate(0,8.3349991)">
</g>
<g
   id="g34"
   transform="translate(0,8.3349991)">
</g>
<g
   inkscape:groupmode="layer"
   id="layer1"
   inkscape:label="back"
   transform="translate(0,8.3349991)" /><g
   id="g1010"
   transform="matrix(0.74679069,0,0,0.74679069,6.8946758,6.4850406)"><g
     id="g954">
	<path
   id="path952"
   d="m 23.71,34.689 c -0.172,0.062 -0.345,0.137 -0.522,0.168 -0.678,0.121 -1.112,-0.229 -1.116,-0.922 -0.009,-1.287 -0.009,-2.572 0.012,-3.859 0.022,-1.48 -0.012,-2.941 -1.139,-4.162 0.67,-0.12 1.266,-0.204 1.849,-0.338 3.862,-0.887 5.868,-3.323 6.124,-7.366 0.131,-2.058 -0.236,-3.946 -1.604,-5.567 C 27.215,12.529 27.21,12.27 27.257,12.104 27.621,10.764 27.515,9.455 27.091,8.145 26.986,7.818 26.812,7.717 26.489,7.738 25.355,7.801 24.316,8.199 23.4,8.811 22.517,9.404 21.695,9.533 20.646,9.293 18.336,8.772 16.011,8.924 13.706,9.458 13.445,9.52 13.094,9.437 12.855,9.297 11.773,8.663 10.691,8.047 9.443,7.801 8.478,7.613 8.394,7.661 8.138,8.594 7.816,9.77 7.784,10.947 8.113,12.13 c 0.047,0.172 -0.002,0.448 -0.117,0.575 -2.557,2.853 -1.631,8.244 0.092,10.309 1.34,1.604 3.12,2.326 5.096,2.701 0.345,0.064 0.688,0.113 1.033,0.173 -0.296,0.77 -0.562,1.497 -0.863,2.212 -0.059,0.138 -0.246,0.254 -0.399,0.312 -1.938,0.752 -3.604,0.199 -4.713,-1.56 C 7.649,25.914 6.888,25.213 5.754,25.01 5.718,25.003 5.681,24.984 5.648,24.989 c -0.305,0.08 -0.607,0.164 -0.911,0.246 0.171,0.238 0.292,0.558 0.521,0.701 0.961,0.608 1.586,1.475 1.999,2.498 0.649,1.604 1.909,2.319 3.546,2.459 0.799,0.065 1.606,0.01 2.481,0.01 0,0.996 0.036,2.133 -0.015,3.265 -0.026,0.61 -0.639,0.854 -1.373,0.604 C 9.949,34.106 8.144,33.151 6.585,31.809 0.956,26.96 -1.214,20.83 0.657,13.655 2.522,6.503 7.383,2.116 14.651,0.739 24.708,-1.163 34.235,6.161 35.233,16.37 36.021,24.418 31.284,31.949 23.71,34.689 Z M 14.229,25.85 c -0.006,0.014 -0.01,0.024 -0.016,0.038 0.018,0.003 0.036,0.006 0.055,0.009 0.014,0.001 0.026,0.026 -0.039,-0.047 z m -4.55,3.181 c 0.157,0.097 0.307,0.22 0.477,0.273 0.062,0.02 0.177,-0.121 0.38,-0.271 C 10.254,28.926 10.088,28.832 9.913,28.808 9.845,28.8 9.757,28.953 9.679,29.031 Z m 1.433,0.246 c 0.023,0.105 0.232,0.236 0.355,0.234 0.119,-0.002 0.235,-0.16 0.354,-0.25 -0.108,-0.099 -0.216,-0.195 -0.548,-0.494 -0.072,0.208 -0.191,0.376 -0.161,0.51 z m 1.758,-0.423 c -0.148,0.035 -0.273,0.172 -0.408,0.266 0.079,0.1 0.158,0.193 0.285,0.35 0.175,-0.16 0.294,-0.271 0.414,-0.379 -0.1,-0.087 -0.217,-0.255 -0.291,-0.237 z M 8.512,28.261 c 0.082,0.155 0.209,0.289 0.381,0.508 0.115,-0.188 0.24,-0.332 0.218,-0.361 -0.109,-0.143 -0.257,-0.26 -0.403,-0.367 -0.01,-0.008 -0.213,0.186 -0.196,0.22 z"
   inkscape:connector-curvature="0" />
</g><g
     id="g956">
</g><g
     id="g958">
</g><g
     id="g960">
</g><g
     id="g962">
</g><g
     id="g964">
</g><g
     id="g966">
</g><g
     id="g968">
</g><g
     id="g970">
</g><g
     id="g972">
</g><g
     id="g974">
</g><g
     id="g976">
</g><g
     id="g978">
</g><g
     id="g980">
</g><g
     id="g982">
</g><g
     id="g984">
</g></g></svg>