<?xml version="1.0" encoding="UTF-8" standalone="no"?>
<!-- Generator: Adobe Illustrator 16.0.0, SVG Export Plug-In . SVG Version: 6.00 Build 0)  -->

<svg
   xmlns:dc="http://purl.org/dc/elements/1.1/"
   xmlns:cc="http://creativecommons.org/ns#"
   xmlns:rdf="http://www.w3.org/1999/02/22-rdf-syntax-ns#"
   xmlns:svg="http://www.w3.org/2000/svg"
   xmlns="http://www.w3.org/2000/svg"
   xmlns:sodipodi="http://sodipodi.sourceforge.net/DTD/sodipodi-0.dtd"
   xmlns:inkscape="http://www.inkscape.org/namespaces/inkscape"
   version="1.1"
   id="Capa_1"
   x="0px"
   y="0px"
   width="40"
   height="40"
   viewBox="0 0 39.999999 39.999999"
   xml:space="preserve"
   sodipodi:docname="in.svg"
   inkscape:version="0.92.4 (unknown)"><metadata
   id="metadata41"><rdf:RDF><cc:Work
       rdf:about=""><dc:format>image/svg+xml</dc:format><dc:type
         rdf:resource="http://purl.org/dc/dcmitype/StillImage" /><dc:title></dc:title></cc:Work></rdf:RDF></metadata><defs
   id="defs39" /><sodipodi:namedview
   pagecolor="#ffffff"
   bordercolor="#666666"
   borderopacity="1"
   objecttolerance="10"
   gridtolerance="10"
   guidetolerance="10"
   inkscape:pageopacity="0"
   inkscape:pageshadow="2"
   inkscape:window-width="1366"
   inkscape:window-height="709"
   id="namedview37"
   showgrid="false"
   inkscape:zoom="5.2700835"
   inkscape:cx="27.075747"
   inkscape:cy="30.966601"
   inkscape:window-x="0"
   inkscape:window-y="36"
   inkscape:window-maximized="1"
   inkscape:current-layer="Capa_1" />
<g
   inkscape:groupmode="layer"
   id="layer2"
   inkscape:label="back 1"><path
     sodipodi:type="star"
     style="opacity:1;fill:#e5e5e5;fill-opacity:1;stroke:#363636;stroke-width:2.5;stroke-linecap:butt;stroke-linejoin:round;stroke-miterlimit:4;stroke-dasharray:none;stroke-opacity:1;paint-order:stroke fill markers"
     id="path852"
     sodipodi:sides="8"
     sodipodi:cx="19.991886"
     sodipodi:cy="20.008114"
     sodipodi:r1="18.289017"
     sodipodi:r2="16.896849"
     sodipodi:arg1="-0.39140513"
     sodipodi:arg2="0.0012939536"
     inkscape:flatsided="true"
     inkscape:rounded="0"
     inkscape:randomized="0"
     d="M 36.897776,13.03108 36.879664,27.028875 26.96892,36.914004 12.971125,36.895892 3.0859958,26.985148 3.1041083,12.987352 13.014852,3.1022235 27.012648,3.120336 Z"
     transform="matrix(1.0885509,0,0,1.0925066,-1.7702989,-1.7837975)" /></g>
<g
   id="g6"
   transform="translate(0,8.3349991)">
</g>
<g
   id="g8"
   transform="translate(0,8.3349991)">
</g>
<g
   id="g10"
   transform="translate(0,8.3349991)">
</g>
<g
   id="g12"
   transform="translate(0,8.3349991)">
</g>
<g
   id="g14"
   transform="translate(0,8.3349991)">
</g>
<g
   id="g16"
   transform="translate(0,8.3349991)">
</g>
<g
   id="g18"
   transform="translate(0,8.3349991)">
</g>
<g
   id="g20"
   transform="translate(0,8.3349991)">
</g>
<g
   id="g22"
   transform="translate(0,8.3349991)">
</g>
<g
   id="g24"
   transform="translate(0,8.3349991)">
</g>
<g
   id="g26"
   transform="translate(0,8.3349991)">
</g>
<g
   id="g28"
   transform="translate(0,8.3349991)">
</g>
<g
   id="g30"
   transform="translate(0,8.3349991)">
</g>
<g
   id="g32"
   transform="translate(0,8.3349991)">
</g>
<g
   id="g34"
   transform="translate(0,8.3349991)">
</g>
<g
   inkscape:groupmode="layer"
   id="layer1"
   inkscape:label="back"
   transform="translate(0,8.3349991)" /><g
   id="g1166"
   transform="matrix(0.05547695,0,0,0.0604866,8.3616278,5.9733503)"><g
     id="g1110">
	<path
   d="M 430.117,261.543 V 420.56 H 337.929 V 272.193 c 0,-37.271 -13.334,-62.707 -46.703,-62.707 -25.473,0 -40.632,17.142 -47.301,33.724 -2.432,5.928 -3.058,14.179 -3.058,22.477 V 420.56 h -92.219 c 0,0 1.242,-251.285 0,-277.32 h 92.21 v 39.309 c -0.187,0.294 -0.43,0.611 -0.606,0.896 h 0.606 v -0.896 c 12.251,-18.869 34.13,-45.824 83.102,-45.824 60.673,-0.001 106.157,39.636 106.157,124.818 z M 52.183,9.558 C 20.635,9.558 0,30.251 0,57.463 c 0,26.619 20.038,47.94 50.959,47.94 h 0.616 c 32.159,0 52.159,-21.317 52.159,-47.94 C 103.128,30.251 83.734,9.558 52.183,9.558 Z M 5.477,420.56 H 97.661 V 143.24 H 5.477 Z"
   id="LinkedIn"
   inkscape:connector-curvature="0" />
</g><g
     id="g1112">
</g><g
     id="g1114">
</g><g
     id="g1116">
</g><g
     id="g1118">
</g><g
     id="g1120">
</g><g
     id="g1122">
</g><g
     id="g1124">
</g><g
     id="g1126">
</g><g
     id="g1128">
</g><g
     id="g1130">
</g><g
     id="g1132">
</g><g
     id="g1134">
</g><g
     id="g1136">
</g><g
     id="g1138">
</g><g
     id="g1140">
</g></g></svg>