<?xml version="1.0" encoding="UTF-8" standalone="no"?>
<!-- Created with Inkscape (http://www.inkscape.org/) -->

<svg
   xmlns:dc="http://purl.org/dc/elements/1.1/"
   xmlns:cc="http://creativecommons.org/ns#"
   xmlns:rdf="http://www.w3.org/1999/02/22-rdf-syntax-ns#"
   xmlns:svg="http://www.w3.org/2000/svg"
   xmlns="http://www.w3.org/2000/svg"
   xmlns:sodipodi="http://sodipodi.sourceforge.net/DTD/sodipodi-0.dtd"
   xmlns:inkscape="http://www.inkscape.org/namespaces/inkscape"
   width="150mm"
   height="102mm"
   viewBox="0 0 150 102"
   version="1.1"
   id="svg8"
   inkscape:version="0.92.4 (unknown)"
   sodipodi:docname="logo.svg">
  <defs
     id="defs2" />
  <sodipodi:namedview
     id="base"
     pagecolor="#ffffff"
     bordercolor="#666666"
     borderopacity="1.0"
     inkscape:pageopacity="0.0"
     inkscape:pageshadow="2"
     inkscape:zoom="1.979899"
     inkscape:cx="248.72807"
     inkscape:cy="221.38751"
     inkscape:document-units="mm"
     inkscape:current-layer="layer2"
     showgrid="false"
     inkscape:window-width="1366"
     inkscape:window-height="709"
     inkscape:window-x="0"
     inkscape:window-y="36"
     inkscape:window-maximized="1" />
  <metadata
     id="metadata5">
    <rdf:RDF>
      <cc:Work
         rdf:about="">
        <dc:format>image/svg+xml</dc:format>
        <dc:type
           rdf:resource="http://purl.org/dc/dcmitype/StillImage" />
        <dc:title></dc:title>
      </cc:Work>
    </rdf:RDF>
  </metadata>
  <g
     inkscape:label="Layer 1"
     inkscape:groupmode="layer"
     id="layer1"
     transform="translate(0,-195)">
    <path
       style="opacity:1;fill:#ffffff;fill-opacity:1;stroke:none;stroke-width:2.16499996;stroke-linecap:butt;stroke-linejoin:round;stroke-miterlimit:4;stroke-dasharray:none;stroke-opacity:0.7254902;paint-order:stroke fill markers"
       id="path1144"
       d="m 86.560318,219.11703 c -0.0056,0.1005 -0.01167,0.20149 -0.0222,0.30169 -0.0096,0.11673 -0.02355,0.23225 -0.04322,0.34768 -0.01921,0.10726 -0.02484,0.2161 -0.02816,0.3248 -0.0047,0.11304 -0.01156,0.22649 -0.02349,0.33906 -0.01405,0.10865 -0.01976,0.21802 -0.02315,0.32745 -0.0026,0.11199 -0.0024,0.22402 -0.0024,0.33603 1.6e-5,-0.0947 -1.3e-5,-0.18939 5e-5,-0.28408 1.1e-5,-0.0165 2.38e-4,0.033 1.03e-4,0.0494 -0.0011,0.12999 -0.0013,0.25999 -0.0037,0.38996 -7.94e-4,0.0428 -0.008,0.0867 -0.01172,0.12938 -0.0043,0.0775 -0.0071,0.15444 -0.01606,0.23153 -0.0067,0.0938 -0.02183,0.18639 -0.02993,0.28004 -0.0019,0.0455 -0.0052,0.0898 -0.02368,0.13191 -0.01572,0.0358 -0.03468,0.063 -0.048,0.10064 -0.02141,0.0773 -0.03798,0.1558 -0.04705,0.23556 -0.0077,0.0748 -0.0083,0.14998 -0.0088,0.22506 -0.0019,0.0782 -0.01318,0.15605 -0.01818,0.23427 0.0024,0.0779 -0.01394,0.15203 -0.03773,0.2256 0,0 -0.04433,-0.34374 -0.04433,-0.34374 v 0 c 0.01982,-0.0736 0.03016,-0.14756 0.03035,-0.22396 0.0061,-0.0781 0.01677,-0.15599 0.01601,-0.23444 0.0011,-0.0751 0.003,-0.15027 0.01302,-0.22478 0.0118,-0.0804 0.02846,-0.16064 0.05553,-0.23737 0.01455,-0.0329 0.0342,-0.0654 0.04483,-0.0999 0.01291,-0.0418 0.01291,-0.0858 0.01736,-0.129 0.0093,-0.0941 0.02312,-0.18768 0.03014,-0.28203 0.0077,-0.0772 0.0079,-0.15473 0.01545,-0.23195 0.0013,-0.0126 0.0024,-0.0252 0.0036,-0.0378 0.0013,-0.0141 0.0027,-0.0282 0.0038,-0.0423 0.01852,-0.22588 0.0053,0.42713 0.0053,0.19261 1.6e-5,-0.13102 1.3e-5,-0.26205 1.9e-5,-0.39308 1.5e-4,-0.11239 -3.5e-5,-0.2248 0.0034,-0.33715 0.0045,-0.10901 0.01204,-0.2178 0.0254,-0.32612 0.0097,-0.11322 0.01834,-0.2267 0.02127,-0.34032 0.0046,-0.10858 0.01262,-0.21709 0.03278,-0.32407 0.01913,-0.1151 0.02943,-0.23092 0.04083,-0.347 0.0087,-0.10292 0.01738,-0.20626 0.01767,-0.30957 0,0 0.05479,0.34592 0.05479,0.34592 z"
       inkscape:connector-curvature="0" />
    <path
       style="opacity:1;fill:#ffffff;fill-opacity:1;stroke:none;stroke-width:2.16499996;stroke-linecap:butt;stroke-linejoin:round;stroke-miterlimit:4;stroke-dasharray:none;stroke-opacity:0.7254902;paint-order:stroke fill markers"
       id="path1146"
       d="m 86.000565,222.24821 c 0.06162,-0.17959 0.13848,-0.35356 0.216696,-0.52646 0.12463,-0.2645 0.232985,-0.53575 0.328737,-0.81189 0.08249,-0.26066 0.150371,-0.52554 0.217506,-0.79046 0.03654,-0.1673 0.0825,-0.33248 0.119126,-0.49973 0.01286,-0.0878 0.03041,-0.17418 0.05769,-0.25866 0.03932,-0.0782 0.04819,-0.16438 0.05595,-0.25018 0.0038,-0.0509 0.0046,-0.10201 0.0056,-0.15305 0,0 0.05288,0.33956 0.05288,0.33956 v 0 c -0.0016,0.0515 -0.0029,0.10298 -0.0081,0.15424 -0.01027,0.0871 -0.02666,0.17194 -0.06222,0.25272 -0.02363,0.0837 -0.0394,0.16875 -0.05596,0.25405 -0.03947,0.16275 -0.0833,0.32446 -0.121666,0.48749 -0.0695,0.26304 -0.136097,0.52702 -0.220896,0.7857 -0.09818,0.27629 -0.207618,0.54817 -0.331105,0.81422 -0.07865,0.17987 -0.154831,0.36112 -0.211965,0.54921 0,0 -0.04224,-0.34676 -0.04224,-0.34676 z"
       inkscape:connector-curvature="0" />
  </g>
  <g
     inkscape:groupmode="layer"
     id="layer2"
     inkscape:label="logo">
    <path
       style="fill:none;stroke:#000000;stroke-width:3.057;stroke-linecap:butt;stroke-linejoin:miter;stroke-miterlimit:4;stroke-dasharray:none;stroke-opacity:1"
       d="M 55.834077,25.325493 H 85 v 0"
       id="path994"
       inkscape:connector-curvature="0" />
    <path
       style="fill:none;stroke:#000000;stroke-width:3.068;stroke-linecap:butt;stroke-linejoin:miter;stroke-miterlimit:4;stroke-dasharray:none;stroke-opacity:1"
       d="M 55.361607,75.325493 H 85 v 0"
       id="path994-6"
       inkscape:connector-curvature="0" />
    <path
       id="path1030"
       transform="scale(0.26458333)"
       style="fill:none;stroke:#000000;stroke-width:0.99999994px;stroke-linecap:butt;stroke-linejoin:miter;stroke-opacity:1"
       d="m 387.14258,225.51172 c -0.0624,1.53241 -0.11443,3.06506 -0.17188,4.59766 l -3.08593,6.52734 c 0.0176,-0.0246 0.0233,-0.0232 0.043,-0.0527 0.14778,-0.22148 0.19793,-0.50186 0.35743,-0.71484 0.20205,-0.26937 0.52813,-0.4347 0.71484,-0.71484 0.0661,-0.0991 -0.0843,-0.27323 0,-0.35742 0.18822,-0.18823 0.49336,-0.20976 0.71484,-0.35743 0.14022,-0.0934 0.23837,-0.23641 0.35743,-0.35547 0.11905,-0.11905 0.28025,-0.20684 0.35546,-0.35742 0.0533,-0.1065 -0.0378,-0.24449 0,-0.35742 0.21084,-0.63245 0.30028,-0.77128 0.33594,-0.77344 -0.006,-0.0892 -0.008,-0.25017 0.0215,-0.65625 0.0956,-1.31548 0.35742,-2.60916 0.35742,-3.92773 v -1.78516 c 0,-0.2381 0.0113,-0.95272 0,-0.71484 z m -3.25781,11.125 c -0.37808,0.52748 -0.3125,0.009 -0.3125,0.66016 z" />
    <g
       id="g1167">
      <g
         id="g1109">
        <g
           id="g1020"
           transform="translate(1.5875364,-11.112558)"
           style="fill:#000000;stroke-width:3;stroke-miterlimit:4;stroke-dasharray:none">
          <path
             inkscape:connector-curvature="0"
             id="path992"
             d="m 100.96669,52.006915 -0.16823,19.988751"
             style="fill:#000000;stroke:#000000;stroke-width:3;stroke-linecap:butt;stroke-linejoin:miter;stroke-miterlimit:4;stroke-dasharray:none;stroke-opacity:1" />
          <path
             inkscape:connector-curvature="0"
             id="path1011"
             d="M 84.999998,36.438001 100.96669,52.006915"
             style="fill:#000000;stroke:#000000;stroke-width:3;stroke-linecap:butt;stroke-linejoin:miter;stroke-miterlimit:4;stroke-dasharray:none;stroke-opacity:1" />
          <path
             inkscape:connector-curvature="0"
             id="path1013"
             d="M 100.79846,71.995664 84.999998,86.437998"
             style="fill:#000000;stroke:#000000;stroke-width:3;stroke-linecap:butt;stroke-linejoin:miter;stroke-miterlimit:4;stroke-dasharray:none;stroke-opacity:1" />
        </g>
        <path
           style="fill:#000000;stroke:#000000;stroke-width:0.26458332px;stroke-linecap:butt;stroke-linejoin:miter;stroke-opacity:1;fill-opacity:1"
           d="m 103.70722,60.824216 c 0,0 -0.0768,0.874073 -0.50791,1.1044 -0.43112,0.230331 -1.02163,-0.44672 -1.02163,-0.44672 l -0.13592,-0.864385 1.39379,0.07087 z"
           id="path1099"
           inkscape:connector-curvature="0" />
        <path
           style="fill:#000000;stroke:#000000;stroke-width:0.1;stroke-linecap:butt;stroke-linejoin:miter;stroke-miterlimit:4;stroke-dasharray:none;stroke-opacity:1;fill-opacity:1"
           d="m 103.51683,39.826426 c 0,0 0.5596,0.618059 0.47608,1.110837 -0.0835,0.492779 -1.06073,0.367496 -1.06073,0.367496 l -0.86863,-0.275622 0.66818,-1.386459 z"
           id="path1101"
           inkscape:connector-curvature="0" />
      </g>
      <rect
         y="23.806175"
         x="85.304497"
         height="6.0948663"
         width="2.3151042"
         id="rect1154"
         style="opacity:1;fill:#ffffff;fill-opacity:1;stroke:none;stroke-width:2.16499996;stroke-linecap:butt;stroke-linejoin:round;stroke-miterlimit:4;stroke-dasharray:none;stroke-opacity:0.7254902;paint-order:stroke fill markers" />
      <rect
         y="71.974518"
         x="85.186378"
         height="6.7090669"
         width="2.3859758"
         id="rect1156"
         style="opacity:1;fill:#ffffff;fill-opacity:1;stroke:none;stroke-width:3.22113419;stroke-linecap:butt;stroke-linejoin:round;stroke-miterlimit:4;stroke-dasharray:none;stroke-opacity:0.7254902;paint-order:stroke fill markers" />
    </g>
    <g
       id="g1870">
      <path
         inkscape:connector-curvature="0"
         id="path1015"
         d="m 82.586284,30.284127 -23.51972,40.157246 v 0"
         style="fill:none;stroke:#000000;stroke-width:2.165;stroke-linecap:butt;stroke-linejoin:miter;stroke-miterlimit:4;stroke-dasharray:none;stroke-opacity:1" />
      <rect
         y="29.603367"
         x="78.744278"
         height="1.2695302"
         width="5.6460686"
         id="rect1863"
         style="opacity:1;fill:#ffffff;fill-opacity:1;stroke:none;stroke-width:2.16499996;stroke-linecap:butt;stroke-linejoin:round;stroke-miterlimit:4;stroke-dasharray:none;stroke-opacity:0.7254902;paint-order:stroke fill markers" />
      <rect
         y="69.827438"
         x="56.66114"
         height="2.3386111"
         width="9.1873856"
         id="rect1865"
         style="opacity:1;fill:#ffffff;fill-opacity:1;stroke:none;stroke-width:2.16499996;stroke-linecap:butt;stroke-linejoin:round;stroke-miterlimit:4;stroke-dasharray:none;stroke-opacity:0.7254902;paint-order:stroke fill markers" />
    </g>
  </g>
</svg>
