<?xml version="1.0" encoding="UTF-8" standalone="no"?>
<!-- Generator: Adobe Illustrator 16.0.0, SVG Export Plug-In . SVG Version: 6.00 Build 0)  -->

<svg
   xmlns:dc="http://purl.org/dc/elements/1.1/"
   xmlns:cc="http://creativecommons.org/ns#"
   xmlns:rdf="http://www.w3.org/1999/02/22-rdf-syntax-ns#"
   xmlns:svg="http://www.w3.org/2000/svg"
   xmlns="http://www.w3.org/2000/svg"
   xmlns:xlink="http://www.w3.org/1999/xlink"
   xmlns:sodipodi="http://sodipodi.sourceforge.net/DTD/sodipodi-0.dtd"
   xmlns:inkscape="http://www.inkscape.org/namespaces/inkscape"
   version="1.1"
   id="Capa_1"
   x="0px"
   y="0px"
   width="48.832px"
   height="48.832px"
   viewBox="0 0 48.832 48.832"
   style="enable-background:new 0 0 48.832 48.832;"
   xml:space="preserve"
   sodipodi:docname="responsived.svg"
   inkscape:version="0.92.4 (unknown)"><metadata
   id="metadata50"><rdf:RDF><cc:Work
       rdf:about=""><dc:format>image/svg+xml</dc:format><dc:type
         rdf:resource="http://purl.org/dc/dcmitype/StillImage" /><dc:title></dc:title></cc:Work></rdf:RDF></metadata><defs
   id="defs48"><linearGradient
     inkscape:collect="always"
     id="linearGradient867"><stop
       style="stop-color:#efefef;stop-opacity:1;"
       offset="0"
       id="stop863" /><stop
       style="stop-color:#efefef;stop-opacity:0;"
       offset="1"
       id="stop865" /></linearGradient><linearGradient
     inkscape:collect="always"
     xlink:href="#linearGradient867"
     id="linearGradient869"
     x1="0"
     y1="24.416"
     x2="48.832"
     y2="24.416"
     gradientUnits="userSpaceOnUse" /></defs><sodipodi:namedview
   pagecolor="#ffffff"
   bordercolor="#666666"
   borderopacity="1"
   objecttolerance="10"
   gridtolerance="10"
   guidetolerance="10"
   inkscape:pageopacity="0"
   inkscape:pageshadow="2"
   inkscape:window-width="1366"
   inkscape:window-height="709"
   id="namedview46"
   showgrid="false"
   inkscape:zoom="4.8328964"
   inkscape:cx="3.3106441"
   inkscape:cy="24.416"
   inkscape:window-x="0"
   inkscape:window-y="36"
   inkscape:window-maximized="1"
   inkscape:current-layer="Capa_1" />
<g
   inkscape:groupmode="layer"
   id="layer1"
   inkscape:label="back"><path
     sodipodi:type="star"
     style="opacity:1;fill:#004749;fill-opacity:1;stroke:#efefef;stroke-width:2.40064597;stroke-linecap:butt;stroke-linejoin:round;stroke-miterlimit:4;stroke-dasharray:none;stroke-opacity:1;paint-order:stroke fill markers"
     id="path861"
     sodipodi:sides="8"
     sodipodi:cx="24.812084"
     sodipodi:cy="24.691849"
     sodipodi:r1="24.93438"
     sodipodi:r2="23.036364"
     sodipodi:arg1="-0.3929076"
     sodipodi:arg2="-0.00020852257"
     inkscape:flatsided="true"
     inkscape:rounded="0"
     inkscape:randomized="0"
     d="m 47.846457,15.145071 0.004,19.083948 -13.491575,13.497203 -19.083947,0.004 L 1.7777114,34.238626 1.7737321,15.154679 15.265307,1.657476 34.349254,1.6534966 Z" /></g><g
   id="g13"
   transform="matrix(0.72881355,0,0,0.72881355,6.2074577,6.813017)"
   style="stroke:#fff8f8;stroke-opacity:1;fill:#ffffff;fill-opacity:1">
	<g
   id="Layer_20_51_"
   style="stroke:#fff8f8;stroke-opacity:1;fill:#ffffff;fill-opacity:1">
		<g
   id="g10"
   style="stroke:#fff8f8;stroke-opacity:1;fill:#ffffff;fill-opacity:1">
			<polygon
   points="15.42,35.68 36.838,35.68 36.838,34.385 28.898,34.385 28.898,32.814 37.729,32.814 37.729,29.227 15.42,29.227 15.42,32.814 22.23,32.814 22.23,34.385 15.42,34.385 "
   id="polygon2"
   style="stroke:#fff8f8;stroke-opacity:1;fill:#ffffff;fill-opacity:1" />
			<polygon
   points="44.739,8.449 6.707,8.449 6.707,17.14 9.489,17.14 9.489,11.231 41.957,11.231 41.957,24.209 44.739,24.209 "
   id="polygon4"
   style="stroke:#fff8f8;stroke-opacity:1;fill:#ffffff;fill-opacity:1" />
			<path
   d="M 0,39.799 H 14.523 V 18.013 H 0 Z m 7.568,-1.094 c -0.386,0 -0.7,-0.312 -0.7,-0.699 0,-0.386 0.314,-0.699 0.7,-0.699 0.387,0 0.699,0.312 0.699,0.699 0,0.387 -0.312,0.699 -0.699,0.699 z M 2.1,20.113 H 12.425 L 12.424,36.185 H 2.1 Z"
   id="path6"
   inkscape:connector-curvature="0"
   style="stroke:#fff8f8;stroke-opacity:1;fill:#ffffff;fill-opacity:1" />
			<path
   d="M 38.715,25.046 V 40.383 H 48.832 V 25.046 Z m 5.264,0.634 c 0.121,0 0.22,0.101 0.22,0.221 0,0.121 -0.099,0.222 -0.22,0.222 -0.123,0 -0.223,-0.101 -0.223,-0.222 0,-0.121 0.099,-0.221 0.223,-0.221 z m -1.314,0.736 h 2.623 v 0.212 h -2.623 z m 1.226,13.305 c -0.291,0 -0.524,-0.236 -0.524,-0.525 0,-0.29 0.233,-0.524 0.524,-0.524 0.289,0 0.525,0.234 0.525,0.524 0,0.288 -0.236,0.525 -0.525,0.525 z m 3.478,-1.806 c -2.368,0.013 -6.016,0.022 -7.189,0.012 V 27.382 l 7.189,-0.001 z"
   id="path8"
   inkscape:connector-curvature="0"
   style="stroke:#fff8f8;stroke-opacity:1;fill:#ffffff;fill-opacity:1" />
		</g>
	</g>
</g>
<g
   id="g15">
</g>
<g
   id="g17">
</g>
<g
   id="g19">
</g>
<g
   id="g21">
</g>
<g
   id="g23">
</g>
<g
   id="g25">
</g>
<g
   id="g27">
</g>
<g
   id="g29">
</g>
<g
   id="g31">
</g>
<g
   id="g33">
</g>
<g
   id="g35">
</g>
<g
   id="g37">
</g>
<g
   id="g39">
</g>
<g
   id="g41">
</g>
<g
   id="g43">
</g>
</svg>