<?xml version="1.0" encoding="UTF-8" standalone="no"?>
<!-- Created with Inkscape (http://www.inkscape.org/) -->

<svg
   xmlns:dc="http://purl.org/dc/elements/1.1/"
   xmlns:cc="http://creativecommons.org/ns#"
   xmlns:rdf="http://www.w3.org/1999/02/22-rdf-syntax-ns#"
   xmlns:svg="http://www.w3.org/2000/svg"
   xmlns="http://www.w3.org/2000/svg"
   xmlns:sodipodi="http://sodipodi.sourceforge.net/DTD/sodipodi-0.dtd"
   xmlns:inkscape="http://www.inkscape.org/namespaces/inkscape"
   width="1354"
   height="1000"
   viewBox="0 0 358.24583 264.58326"
   version="1.1"
   id="svg8"
   inkscape:version="0.92.4 (unknown)"
   sodipodi:docname="section 2.svg">
  <defs
     id="defs2" />
  <sodipodi:namedview
     id="base"
     pagecolor="#ffffff"
     bordercolor="#666666"
     borderopacity="1.0"
     inkscape:pageopacity="0.0"
     inkscape:pageshadow="2"
     inkscape:zoom="0.49497475"
     inkscape:cx="775.72716"
     inkscape:cy="514.39466"
     inkscape:document-units="px"
     inkscape:current-layer="layer1"
     showgrid="false"
     units="px"
     inkscape:snap-page="true"
     inkscape:window-width="1366"
     inkscape:window-height="709"
     inkscape:window-x="0"
     inkscape:window-y="36"
     inkscape:window-maximized="1" />
  <metadata
     id="metadata5">
    <rdf:RDF>
      <cc:Work
         rdf:about="">
        <dc:format>image/svg+xml</dc:format>
        <dc:type
           rdf:resource="http://purl.org/dc/dcmitype/StillImage" />
        <dc:title></dc:title>
      </cc:Work>
    </rdf:RDF>
  </metadata>
  <g
     inkscape:label="Layer 1"
     inkscape:groupmode="layer"
     id="layer1"
     transform="translate(0,-32.416664)">
    <rect
       style="fill:#999999;stroke-width:0.26458329"
       id="rect10"
       width="149.67856"
       height="104.32141"
       x="96.628365"
       y="94.126907"
       ry="10.958049" />
    <rect
       style="fill:#4d4d4d;stroke-width:0.23280506"
       id="rect12"
       width="135.31546"
       height="89.339935"
       x="104.18789"
       y="100.93048" />
    <rect
       style="fill:#4d4d4d;stroke-width:0.26458329"
       id="rect14"
       width="8.5526237"
       height="29.934181"
       x="164.90527"
       y="196.77391" />
    <rect
       style="fill:#cccccc;stroke-width:0.26458329"
       id="rect16"
       width="81.249924"
       height="56.661133"
       x="184.95049"
       y="156.95074"
       ry="5.8799286" />
    <rect
       style="fill:#333333;stroke-width:0.22573212"
       id="rect18"
       width="73.499107"
       height="48.643051"
       x="188.95953"
       y="160.95979" />
    <path
       style="fill:#333333;stroke-width:0.26726949"
       d="m 105.48185,198.1159 c -3.09916,-0.60989 -6.222593,-3.01533 -7.610693,-5.86122 -0.4302,-0.882 -0.82958,-2.32522 -0.99846,-3.60814 -0.18978,-1.44166 -0.2557,-15.71968 -0.20237,-43.83219 0.0726,-38.29268 0.11587,-41.80024 0.52987,-42.99576 1.05315,-3.041221 3.573953,-5.69025 6.563543,-6.897412 l 1.53736,-0.620768 65.20294,-0.07001 c 43.14195,-0.04632 65.70396,0.02151 66.68374,0.200517 4.57518,0.83584 8.08833,4.414345 8.84009,9.004563 0.14905,0.91006 0.25543,12.34285 0.25634,27.54767 l 0.002,25.99196 h -3.34091 -3.34087 v -28.0633 -28.0633 h -67.75282 -67.75282 v 44.76765 44.76764 h 40.3577 40.35769 v 4.00904 4.00904 h -5.61266 -5.61266 v -0.80181 -0.8018 h -4.40994 -4.40995 v 0.8018 0.80181 l -29.06556,-0.0293 c -15.98605,-0.0161 -29.58557,-0.13162 -30.22115,-0.2567 z"
       id="path20"
       inkscape:connector-curvature="0" />
    <path
       style="fill:#cccccc;stroke-width:0.26726949"
       d="m 121.60454,198.14041 -16.83798,-0.13943 -1.60362,-0.79935 c -1.94487,-0.96945 -4.363613,-3.30663 -5.132643,-4.95954 -1.1889,-2.55542 -1.18224,-2.26878 -1.09636,-47.16047 l 0.0818,-42.76312 0.7847,-1.60362 c 1.05551,-2.157073 3.312983,-4.373419 5.534353,-5.433527 l 1.77546,-0.84731 h 65.86203 c 59.50866,0 66.00206,0.04113 67.3137,0.42639 2.5734,0.755861 4.6447,2.330367 6.11944,4.651731 1.67261,2.632816 1.61074,1.572556 1.79757,30.802816 l 0.1704,26.66013 h -3.38469 -3.38468 v -28.0633 -28.0633 H 171.8512 104.09838 v 44.76765 44.76764 h 40.3577 40.35769 v 4.00904 4.00904 h -5.61266 -5.61266 v -0.80181 -0.8018 h -4.40994 -4.40995 v 0.8018 0.80181 l -13.16302,-0.061 c -7.23967,-0.0336 -20.74012,-0.12376 -30.001,-0.20045 z"
       id="path22"
       inkscape:connector-curvature="0" />
    <rect
       style="fill:#cccccc;stroke:#c6b7a5;stroke-width:0.26458329;stroke-opacity:1"
       id="rect24"
       width="19.243402"
       height="40.624962"
       x="210.34108"
       y="189.82489"
       ry="3.207247" />
    <rect
       style="fill:#cccccc;stroke-width:0.21836691"
       id="rect26"
       width="12.561668"
       height="27.261475"
       x="191.89949"
       y="203.18837"
       ry="3.2072489" />
    <rect
       style="fill:#333333;stroke-width:0.27888191"
       id="rect28"
       width="19.243404"
       height="34.477764"
       x="210.34108"
       y="192.79713"
       ry="0" />
    <rect
       style="fill:#333333;stroke-width:0.26458329"
       id="rect30"
       width="12.361214"
       height="20.713385"
       x="191.96631"
       y="206.66289" />
    <ellipse
       style="fill:#333333;stroke-width:0.26458329"
       id="path32"
       cx="198.12483"
       cy="228.87965"
       rx="1.0356693"
       ry="1.069078" />
    <rect
       style="fill:#333333;stroke-width:0.26458329"
       id="rect34"
       width="4.1259727"
       height="0.20045213"
       x="196.09229"
       y="204.95906" />
    <path
       style="color:#000000;font-style:normal;font-variant:normal;font-weight:normal;font-stretch:normal;font-size:medium;line-height:normal;font-family:sans-serif;font-variant-ligatures:normal;font-variant-position:normal;font-variant-caps:normal;font-variant-numeric:normal;font-variant-alternates:normal;font-feature-settings:normal;text-indent:0;text-align:start;text-decoration:none;text-decoration-line:none;text-decoration-style:solid;text-decoration-color:#000000;letter-spacing:normal;word-spacing:normal;text-transform:none;writing-mode:lr-tb;direction:ltr;text-orientation:mixed;dominant-baseline:auto;baseline-shift:baseline;text-anchor:start;white-space:normal;shape-padding:0;clip-rule:nonzero;display:inline;overflow:visible;visibility:visible;opacity:1;isolation:auto;mix-blend-mode:normal;color-interpolation:sRGB;color-interpolation-filters:linearRGB;solid-color:#000000;solid-opacity:1;vector-effect:none;fill:#c6b7a5;fill-opacity:1;fill-rule:nonzero;stroke:none;stroke-width:0.24695185;stroke-linecap:butt;stroke-linejoin:miter;stroke-miterlimit:4;stroke-dasharray:none;stroke-dashoffset:0;stroke-opacity:1;color-rendering:auto;image-rendering:auto;shape-rendering:auto;text-rendering:auto;enable-background:accumulate"
       d="m 151.20296,233.4217 c -1.03289,1e-5 -1.86853,-0.83428 -1.8702,-1.86717 l -0.0195,-12.08788 c -0.002,-1.03288 0.83129,-1.86914 1.86418,-1.86914 l 35.40235,-3e-5 c 1.03289,0 1.87049,0.83626 1.87215,1.86914 l 0.0195,12.08788 c 0.002,1.03289 -0.83324,1.86718 -1.86613,1.86718 z m -4e-4,-0.24608 35.40235,-3e-5 c 0.90035,0 1.61993,-0.72074 1.61848,-1.62109 l -6.89023,-11.55473 c -1.62963,-2.47964 -4.5438,-2.0956 -5.58549,-2.12181 -5.36865,-0.13508 -10.21843,-0.0796 -13.30537,0.0155 -1.48729,0.0458 -3.67663,0.60945 -4.73122,2.10769 l -8.13222,11.55334 c 0.001,0.90035 0.72336,1.62109 1.62371,1.62109 z"
       id="rect841"
       inkscape:connector-curvature="0"
       sodipodi:nodetypes="cscssccsccsccsssccc" />
    <path
       style="fill:#ffffff;stroke:#c6b7a5;stroke-width:0.09449404;stroke-opacity:1"
       d="m 150.38965,232.88073 c -0.40534,-0.27316 -0.74855,-0.77955 -0.74855,-1.10444 0,-0.17948 1.18375,-1.93476 4.11687,-6.10452 2.26427,-3.21893 4.25219,-5.98854 4.41759,-6.1547 1.06912,-1.07402 3.01911,-1.63502 5.68316,-1.63502 h 0.99592 v 4.44122 4.44122 h 4.29948 4.29947 v -4.45284 -4.45283 l 2.29148,0.0499 c 2.50267,0.0546 2.98438,0.13348 3.95314,0.64776 1.03702,0.55051 1.25233,0.85834 5.00457,7.15534 3.85902,6.4762 3.68186,6.09523 3.15549,6.78534 -0.49472,0.6486 1.09743,0.59838 -18.96897,0.59838 h -18.18082 z"
       id="path847"
       inkscape:connector-curvature="0" />
    <path
       style="fill:#ffffff;stroke:#c6b7a5;stroke-width:0.09449404;stroke-opacity:1"
       d="m 150.4443,233.20086 c -0.4576,-0.21167 -0.74542,-0.51085 -0.94043,-0.9776 -0.1272,-0.30442 -0.14599,-1.18448 -0.14418,-6.75503 0.002,-6.05136 0.0118,-6.42648 0.1787,-6.79395 0.20751,-0.45694 0.66056,-0.82696 1.18939,-0.97141 0.26707,-0.073 5.59256,-0.10341 18.14933,-0.10378 19.43307,-5.3e-4 18.42284,-0.0294 18.95623,0.54059 0.54832,0.58594 0.52467,0.27694 0.56259,7.34914 l 0.035,6.52009 -0.21448,0.40149 c -0.11796,0.22082 -0.39125,0.51848 -0.6073,0.66146 l -0.39283,0.25996 -18.19701,0.0219 c -17.53225,0.0211 -18.21081,0.0156 -18.57498,-0.1529 z m 36.95478,-0.24145 c 0.0738,-0.10089 0.13413,-0.15404 0.13413,-0.11812 0,0.0782 0.37062,-0.28181 0.39484,-0.38354 0.009,-0.039 0.0735,-0.12745 0.14262,-0.1966 0.0692,-0.0692 0.10264,-0.16311 0.0744,-0.20877 -0.0282,-0.0457 -0.003,-0.15994 0.0554,-0.25393 0.0874,-0.13986 0.043,-0.27786 -0.24407,-0.7598 -0.19295,-0.32389 -0.39087,-0.5889 -0.43983,-0.5889 -0.049,0 -0.0637,-0.041 -0.0328,-0.091 0.0309,-0.0501 -0.0268,-0.17409 -0.12829,-0.2756 -0.10151,-0.10151 -0.15976,-0.20937 -0.12944,-0.23968 0.0303,-0.0303 0.003,-0.0551 -0.0607,-0.0551 -0.0637,0 -0.0893,-0.0428 -0.057,-0.0952 0.0324,-0.0523 -0.007,-0.12057 -0.0884,-0.15164 -0.081,-0.0311 -0.12366,-0.0945 -0.0949,-0.14107 0.0288,-0.0465 0.005,-0.0846 -0.0534,-0.0846 -0.0581,0 -0.0792,-0.0428 -0.0468,-0.0952 0.0324,-0.0523 -0.007,-0.12058 -0.0884,-0.15164 -0.081,-0.0311 -0.12366,-0.0945 -0.0949,-0.14107 0.0288,-0.0465 0.005,-0.0846 -0.0534,-0.0846 -0.0581,0 -0.0792,-0.0428 -0.0468,-0.0952 0.0324,-0.0523 -0.007,-0.12057 -0.0884,-0.15164 -0.081,-0.0311 -0.12367,-0.0945 -0.0949,-0.14107 0.0288,-0.0465 0.005,-0.0846 -0.0534,-0.0846 -0.0581,0 -0.0821,-0.0381 -0.0534,-0.0846 0.0288,-0.0465 -0.014,-0.11001 -0.0949,-0.14107 -0.081,-0.0311 -0.12072,-0.0993 -0.0884,-0.15164 0.0323,-0.0523 0.0113,-0.0952 -0.0468,-0.0952 -0.0581,0 -0.0794,-0.0425 -0.0473,-0.0945 0.0321,-0.052 0.0134,-0.0945 -0.0417,-0.0945 -0.055,0 -0.10007,-0.0638 -0.10007,-0.14175 0,-0.0779 -0.045,-0.14174 -0.10007,-0.14174 -0.055,0 -0.0738,-0.0425 -0.0417,-0.0945 0.0321,-0.052 0.0134,-0.0945 -0.0417,-0.0945 -0.055,0 -0.10007,-0.0638 -0.10007,-0.14174 0,-0.078 -0.045,-0.14175 -0.10007,-0.14175 -0.055,0 -0.0738,-0.0425 -0.0417,-0.0945 0.0321,-0.052 0.0134,-0.0945 -0.0417,-0.0945 -0.055,0 -0.10007,-0.0638 -0.10007,-0.14175 0,-0.0779 -0.045,-0.14174 -0.10007,-0.14174 -0.055,0 -0.0738,-0.0425 -0.0417,-0.0945 0.0321,-0.052 0.0108,-0.0945 -0.0472,-0.0945 -0.0581,0 -0.0792,-0.0428 -0.0468,-0.0952 0.0323,-0.0523 -0.007,-0.12057 -0.0884,-0.15164 -0.081,-0.0311 -0.12366,-0.0945 -0.0949,-0.14107 0.0288,-0.0465 0.005,-0.0846 -0.0534,-0.0846 -0.0581,0 -0.0792,-0.0428 -0.0468,-0.0952 0.0323,-0.0523 -0.007,-0.12057 -0.0884,-0.15164 -0.081,-0.0311 -0.12366,-0.0945 -0.0949,-0.14107 0.0288,-0.0465 0.005,-0.0846 -0.0534,-0.0846 -0.0581,0 -0.0792,-0.0428 -0.0468,-0.0952 0.0323,-0.0523 -0.007,-0.12057 -0.0884,-0.15164 -0.081,-0.0311 -0.12366,-0.0945 -0.0949,-0.14107 0.0287,-0.0465 0.005,-0.0846 -0.0534,-0.0846 -0.0581,0 -0.0792,-0.0428 -0.0468,-0.0952 0.0323,-0.0523 -0.007,-0.12057 -0.0884,-0.15164 -0.081,-0.0311 -0.12367,-0.0945 -0.0949,-0.14107 0.0288,-0.0465 0.005,-0.0846 -0.0534,-0.0846 -0.0581,0 -0.0792,-0.0428 -0.0468,-0.0952 0.0323,-0.0523 -0.007,-0.12058 -0.0884,-0.15164 -0.0809,-0.0311 -0.12366,-0.0946 -0.0949,-0.14107 0.0288,-0.0465 0.005,-0.0846 -0.0534,-0.0846 -0.0581,0 -0.0792,-0.0428 -0.0468,-0.0952 0.0323,-0.0523 -0.007,-0.12057 -0.0884,-0.15164 -0.081,-0.0311 -0.12366,-0.0945 -0.0949,-0.14107 0.0288,-0.0465 0.005,-0.0846 -0.0534,-0.0846 -0.0581,0 -0.0792,-0.0428 -0.0468,-0.0952 0.0324,-0.0523 -0.007,-0.12058 -0.0884,-0.15164 -0.081,-0.0311 -0.12366,-0.0945 -0.0949,-0.14107 0.0288,-0.0465 0.005,-0.0846 -0.0534,-0.0846 -0.0581,0 -0.0792,-0.0428 -0.0468,-0.0952 0.0324,-0.0523 -0.007,-0.12058 -0.0884,-0.15164 -0.081,-0.0311 -0.12367,-0.0945 -0.0949,-0.14107 0.0288,-0.0465 0.005,-0.0846 -0.0534,-0.0846 -0.0581,0 -0.0792,-0.0428 -0.0468,-0.0952 0.0324,-0.0523 -0.007,-0.12057 -0.0884,-0.15164 -0.081,-0.0311 -0.12367,-0.0945 -0.0949,-0.14107 0.0288,-0.0465 0.005,-0.0846 -0.0534,-0.0846 -0.0581,0 -0.0803,-0.041 -0.0494,-0.091 0.0309,-0.0501 -0.0197,-0.17056 -0.11254,-0.26774 -0.0928,-0.0972 -0.17977,-0.22728 -0.19316,-0.28912 -0.0616,-0.2844 -1.09309,-1.80518 -1.48063,-2.18297 -0.23768,-0.2317 -0.43214,-0.38303 -0.43214,-0.33629 0,0.0467 -0.0624,0.002 -0.13874,-0.0984 -0.0763,-0.10089 -0.14009,-0.15154 -0.14174,-0.11256 -0.002,0.039 -0.0913,-0.0175 -0.1993,-0.12542 -0.10796,-0.10796 -0.25679,-0.17308 -0.33073,-0.14471 -0.0739,0.0284 -0.13443,0.008 -0.13443,-0.0455 0,-0.0534 -0.0425,-0.0708 -0.0945,-0.0387 -0.052,0.0321 -0.0945,0.009 -0.0945,-0.0518 0,-0.0606 -0.0638,-0.0857 -0.14174,-0.0558 -0.078,0.0299 -0.14175,0.009 -0.14175,-0.0472 0,-0.0559 -0.0624,-0.0777 -0.13871,-0.0484 -0.0763,0.0293 -0.1665,0.008 -0.20045,-0.0467 -0.0343,-0.0556 -0.18447,-0.0753 -0.33845,-0.0445 -0.15426,0.0308 -0.25348,0.0177 -0.2242,-0.0297 0.0652,-0.10552 -1.20312,-0.17823 -1.27998,-0.0734 -0.0306,0.0418 -0.47711,0.0361 -0.99219,-0.0126 -0.51508,-0.0487 -3.13704,-0.094 -5.82657,-0.10072 l -4.89007,-0.0122 -0.0227,4.46645 -0.0227,4.46645 -0.0255,-4.4746 -0.0255,-4.47459 -0.7314,0.062 c -0.40227,0.0341 -1.2204,0.0786 -1.81808,0.099 -1.06505,0.0363 -2.09437,0.23579 -2.15499,0.41765 -0.0168,0.0505 -0.0916,0.0683 -0.16622,0.0397 -0.0746,-0.0286 -0.13563,-0.002 -0.13563,0.0581 0,0.0606 -0.0413,0.0847 -0.0917,0.0535 -0.11609,-0.0717 -0.66423,0.20637 -0.66423,0.33702 0,0.0537 -0.0425,0.0714 -0.0945,0.0392 -0.052,-0.0321 -0.0945,-0.0134 -0.0945,0.0417 0,0.055 -0.0592,0.10007 -0.13163,0.10007 -0.0724,0 -0.15714,0.0665 -0.18833,0.14773 -0.0312,0.0813 -0.0928,0.12543 -0.13687,0.0982 -0.0441,-0.0273 -0.20816,0.087 -0.36457,0.25388 -0.31357,0.33457 -1.2068,1.57909 -1.13336,1.57909 0.0254,0 -0.0784,0.13341 -0.23072,0.29645 -0.15231,0.16305 -0.26001,0.31337 -0.23933,0.33405 0.0207,0.0207 -0.0842,0.16799 -0.2331,0.32737 -0.14888,0.15937 -0.24983,0.32351 -0.22434,0.36475 0.0255,0.0412 -0.0233,0.10171 -0.10838,0.13436 -0.0851,0.0327 -0.12765,0.0864 -0.0945,0.11955 0.0331,0.0331 -0.0253,0.12004 -0.1298,0.19323 -0.10448,0.0732 -0.16824,0.16821 -0.14169,0.21118 0.0266,0.043 -0.0179,0.10355 -0.0989,0.13461 -0.081,0.0311 -0.12347,0.0948 -0.0945,0.14174 0.029,0.0469 -0.0136,0.11068 -0.0945,0.14174 -0.081,0.0311 -0.12203,0.0972 -0.0913,0.1469 0.0307,0.0497 -0.0315,0.13721 -0.1384,0.1944 -0.10685,0.0572 -0.17207,0.13991 -0.14493,0.18383 0.0271,0.0439 -0.0169,0.10527 -0.0978,0.13633 -0.081,0.0311 -0.12348,0.0948 -0.0945,0.14174 0.029,0.0469 -0.0136,0.11068 -0.0945,0.14174 -0.081,0.0311 -0.12204,0.0972 -0.0913,0.1469 0.0307,0.0497 -0.0315,0.13721 -0.1384,0.1944 -0.10685,0.0572 -0.17207,0.13991 -0.14493,0.18383 0.0272,0.0439 -0.0169,0.10527 -0.0978,0.13633 -0.081,0.0311 -0.12204,0.0972 -0.0913,0.1469 0.0307,0.0497 -0.0315,0.13721 -0.1384,0.1944 -0.10685,0.0572 -0.17207,0.13991 -0.14493,0.18383 0.0272,0.0439 -0.0169,0.10526 -0.0978,0.13633 -0.081,0.0311 -0.12054,0.0996 -0.088,0.15231 0.0326,0.0527 -0.007,0.12124 -0.088,0.15231 -0.081,0.0311 -0.12498,0.0924 -0.0978,0.13633 0.0271,0.0439 -0.0381,0.12664 -0.14493,0.18383 -0.10686,0.0572 -0.17208,0.13991 -0.14494,0.18383 0.0271,0.0439 -0.0169,0.10526 -0.0978,0.13633 -0.081,0.0311 -0.12054,0.0996 -0.088,0.15231 0.0326,0.0527 -0.007,0.12124 -0.088,0.15231 -0.081,0.0311 -0.12498,0.0924 -0.0978,0.13633 0.0271,0.0439 -0.0381,0.12664 -0.14493,0.18383 -0.10686,0.0572 -0.17208,0.13991 -0.14493,0.18383 0.0271,0.0439 -0.0169,0.10527 -0.0978,0.13633 -0.081,0.0311 -0.12204,0.0972 -0.0913,0.1469 0.0307,0.0497 -0.0315,0.13721 -0.13839,0.1944 -0.10686,0.0572 -0.17208,0.13991 -0.14493,0.18383 0.0271,0.0439 -0.0169,0.10526 -0.0978,0.13633 -0.081,0.0311 -0.12348,0.0949 -0.0945,0.14174 0.029,0.0469 -0.0169,0.11198 -0.10203,0.14463 -0.0851,0.0327 -0.13297,0.0811 -0.10639,0.10771 0.0266,0.0266 -0.0749,0.18025 -0.22549,0.34148 -0.15061,0.16122 -0.25198,0.31499 -0.22527,0.34169 0.0267,0.0267 -0.0126,0.0953 -0.0874,0.1524 -0.0748,0.0571 -0.43519,0.52906 -0.80093,1.04877 -0.60324,0.85721 -0.81853,1.37017 -0.57505,1.37017 0.0503,0 0.0668,0.0645 0.0365,0.14342 -0.065,0.1694 0.75839,1.03783 0.90064,0.94991 0.0507,-0.0313 0.11911,-0.0134 0.152,0.0398 0.0405,0.0656 5.93231,0.0889 18.29875,0.0724 17.93092,-0.0239 18.24122,-0.0274 18.37307,-0.20776 z"
       id="path849"
       inkscape:connector-curvature="0" />
    <path
       style="fill:#ffffff;stroke:#c6b7a5;stroke-width:0.09449404;stroke-opacity:1"
       d="m 188.24531,231.84226 c 0.0554,-0.30143 0.0175,-0.43466 -0.24884,-0.87407 -0.17281,-0.28514 -0.34775,-0.51844 -0.38874,-0.51844 -0.041,0 -0.0745,-0.0587 -0.0745,-0.13044 0,-0.11415 -1.08045,-1.93246 -1.29814,-2.18466 -0.0448,-0.052 -0.11178,-0.17362 -0.14872,-0.27033 -0.0494,-0.12943 -2.69347,-4.61156 -3.65889,-6.20251 -0.0473,-0.078 -0.21568,-0.37562 -0.37416,-0.66146 -0.48702,-0.8784 -1.19574,-1.76638 -1.76898,-2.21639 -0.30078,-0.23613 -0.61183,-0.42935 -0.69121,-0.42938 -0.0794,-4e-5 -0.23817,-0.0658 -0.35284,-0.1461 -0.11467,-0.0803 -0.34738,-0.16826 -0.51712,-0.19541 -0.16974,-0.0272 -0.43619,-0.071 -0.5921,-0.0974 -0.15592,-0.0264 -1.36559,-0.0674 -2.68817,-0.091 -1.32258,-0.0237 -2.42462,-0.0629 -2.44897,-0.0873 -0.0759,-0.0759 12.06766,-0.0364 13.2471,0.0431 1.2647,0.0852 1.49466,0.18897 1.80958,0.8164 0.1785,0.35564 0.18941,0.65649 0.24993,6.89197 0.0406,4.1858 0.0304,6.55392 -0.0286,6.61458 -0.0597,0.0614 -0.069,-0.03 -0.0266,-0.26114 z"
       id="path851"
       inkscape:connector-curvature="0" />
    <path
       style="fill:#ffffff;stroke:#c6b7a5;stroke-width:0.09449404;stroke-opacity:1"
       d="m 187.98195,230.85066 c -0.35673,-0.55871 -1.04343,-1.71554 -4.13636,-6.96824 -2.24601,-3.81437 -2.39675,-4.04664 -3.07928,-4.74455 -0.61996,-0.63394 -1.50155,-1.11359 -2.30453,-1.25383 -0.57128,-0.0998 5.93572,-0.10821 7.51227,-0.01 0.67564,0.0422 1.34877,0.13337 1.49586,0.2026 0.1471,0.0692 0.35833,0.29822 0.46941,0.50885 0.19864,0.37668 0.20254,0.47709 0.23694,6.09987 0.0192,3.14429 0.0206,5.87604 0.003,6.07055 l -0.0319,0.35366 -0.16547,-0.25917 z"
       id="path853"
       inkscape:connector-curvature="0" />
    <path
       style="fill:#ffffff;stroke:#c6b7a5;stroke-width:0.09449404;stroke-opacity:1"
       d="m 185.33732,217.90971 c 0.11754,-0.0226 0.28763,-0.0218 0.37798,0.002 0.0903,0.0237 -0.006,0.0421 -0.21372,0.0411 -0.20788,-0.001 -0.2818,-0.0204 -0.16426,-0.043 z"
       id="path855"
       inkscape:connector-curvature="0" />
    <path
       style="fill:#ffffff;stroke:#c6b7a5;stroke-width:0.09449404;stroke-opacity:1"
       d="m 184.74563,217.87841 c -0.31183,-0.0387 -0.86462,-0.0803 -1.22842,-0.0924 -1.31348,-0.0438 0.0802,-0.17411 1.74814,-0.16339 1.09262,0.007 1.34709,0.0261 0.85044,0.0639 -0.61013,0.0464 -0.68241,0.0699 -0.51971,0.16909 0.18026,0.10992 0.17807,0.11474 -0.0472,0.10422 -0.12993,-0.006 -0.49137,-0.0427 -0.8032,-0.0814 z"
       id="path857"
       inkscape:connector-curvature="0" />
    <path
       style="fill:#ffffff;stroke:#c6b7a5;stroke-width:0.09449404;stroke-opacity:1"
       d="m 187.94706,230.66325 c -0.0582,-0.0944 -1.28463,-2.16901 -2.72536,-4.61018 -1.44072,-2.44118 -2.90198,-4.88435 -3.24724,-5.42926 -0.79421,-1.25348 -1.48647,-1.95175 -2.37621,-2.39688 -0.72624,-0.36331 -0.72237,-0.3842 0.0919,-0.49738 0.67858,-0.0943 7.18155,-0.1214 7.18155,-0.0299 0,0.0386 0.0957,0.0506 0.21261,0.0266 0.14721,-0.0302 0.11088,0.0149 -0.11812,0.14663 l -0.33073,0.19025 0.33333,0.004 c 0.40486,0.005 0.70093,0.19891 0.91565,0.60029 0.14554,0.27206 0.16473,0.84811 0.19734,5.92376 0.0199,3.09232 0.0215,5.76221 0.004,5.9331 -0.0286,0.27314 -0.0453,0.28995 -0.13838,0.13903 z m -2.20924,-12.67361 c 0,-0.0448 -0.10631,-0.0611 -0.23624,-0.0362 -0.12993,0.0248 -0.23623,0.0615 -0.23623,0.0814 0,0.0199 0.1063,0.0362 0.23623,0.0362 0.12993,0 0.23624,-0.0366 0.23624,-0.0814 z m -0.63784,-0.0737 c 0.67438,-0.11147 0.35035,-0.22278 -0.61421,-0.211 -0.71069,0.009 -0.86211,0.0292 -0.56872,0.077 0.21992,0.0358 0.42899,0.0943 0.4646,0.12991 0.0794,0.0794 0.25685,0.0804 0.71833,0.004 z m 1.34654,-0.0338 c 0.15161,-0.0651 0.1189,-0.0825 -0.16536,-0.0879 -0.19489,-0.004 -0.35435,0.0359 -0.35435,0.0879 0,0.11283 0.25712,0.11283 0.51971,0 z m -4.79557,-0.0651 c -0.091,-0.0238 -0.23978,-0.0238 -0.33073,0 -0.0909,0.0238 -0.0165,0.0432 0.16537,0.0432 0.1819,0 0.25631,-0.0194 0.16536,-0.0432 z m 1.60443,-0.0865 c -0.0314,-0.0314 -0.1129,-0.0347 -0.18111,-0.007 -0.0754,0.0302 -0.053,0.0525 0.0571,0.0571 0.0996,0.004 0.15542,-0.0182 0.12402,-0.0496 z"
       id="path859"
       inkscape:connector-curvature="0" />
    <path
       style="fill:#ffffff;stroke:#c6b7a5;stroke-width:0.09449404;stroke-opacity:1"
       d="m 150.46599,232.82923 c -0.3265,-0.21779 -0.7304,-0.75598 -0.7304,-0.97325 0,-0.20496 1.14554,-1.9366 3.4932,-5.28048 3.22703,-4.5964 4.76794,-6.73616 5.07329,-7.04494 0.95805,-0.9688 2.98411,-1.5522 5.395,-1.55346 l 1.06306,-5.3e-4 v 4.44122 4.44122 h 4.39398 4.39397 v -4.45621 -4.45621 l 2.19698,0.0638 c 2.48127,0.0721 2.85716,0.12664 3.72492,0.54078 1.15134,0.54948 1.38382,0.87594 5.27393,7.40556 3.48726,5.85344 3.48809,5.85516 3.1007,6.44639 -0.38592,0.58898 0.95531,0.54828 -18.97399,0.57575 -17.51066,0.0241 -18.15197,0.0189 -18.40464,-0.14962 z"
       id="path861"
       inkscape:connector-curvature="0" />
    <path
       id="path863"
       style="fill:#b3b3b3;stroke:#c6b7a5;stroke-width:0.09449404;stroke-opacity:1"
       d="m 173.64264,218.04108 v 4.45606 4.45658 h -4.48861 -4.48862 v -4.45503 -4.45502 l -1.39371,0.0532 c -2.28876,0.0875 -3.85272,0.53972 -4.78162,1.38286 -0.3022,0.27431 -1.89681,2.44976 -4.23178,5.77278 -3.11322,4.43058 -4.42816,6.40292 -4.42816,6.64249 0,0.0699 0.15015,0.30269 0.33383,0.51728 0.29788,0.348 0.38722,0.39462 0.82682,0.42943 1.04958,0.0831 35.65752,-0.0155 36.10684,-0.10284 0.52104,-0.10131 0.80796,-0.38452 0.81132,-0.80098 0.003,-0.37938 -0.74538,-1.7591 -3.1042,-5.72162 -3.77578,-6.3428 -4.26579,-7.03835 -5.32009,-7.55406 -0.82182,-0.40199 -1.40081,-0.48751 -3.78272,-0.55913 z"
       inkscape:connector-curvature="0" />
    <path
       style="fill:#ffffff;stroke:#f9f9f9;stroke-width:0.26458329;stroke-opacity:1"
       id="path902"
       d="m 149.89911,216.99657 c 0.13985,0.58274 0.24535,1.17263 0.36249,1.76011 0.14218,0.73516 0.20212,1.48043 0.24573,2.22662 0.0161,0.45481 0.0325,0.90972 0.0357,1.36484 -8e-5,0.2822 -5.3e-4,0.5644 7.9e-4,0.8466 0.0147,0.30431 -0.0185,0.59635 -0.11713,0.88406 -0.0129,0.0347 -0.0258,0.0695 -0.0388,0.10425 0,0 -1.26618,0.58523 -1.26618,0.58523 v 0 c 0.0148,-0.0341 0.0296,-0.0681 0.0444,-0.10223 0.11686,-0.29585 0.16447,-0.5164 0.13703,-0.83944 0.002,-0.28326 0.004,-0.56652 0.006,-0.84979 0.004,-0.45805 0.015,-0.91627 -0.003,-1.37421 -0.0254,-0.74188 -0.0822,-1.48398 -0.22675,-2.21335 -0.11804,-0.57802 -0.2194,-1.16232 -0.4097,-1.72228 0,0 1.2299,-0.67041 1.2299,-0.67041 z"
       inkscape:connector-curvature="0" />
    <path
       style="fill:#ffffff;stroke:#f9f9f9;stroke-width:0.26458329;stroke-opacity:1"
       id="path904"
       d="m 153.73795,215.05512 c -0.25682,0.50568 -0.55132,0.98735 -0.87238,1.45434 -0.43477,0.64612 -0.86866,1.29459 -1.25087,1.97352 -0.31741,0.55869 -0.60867,1.13359 -0.83844,1.73401 -0.16674,0.46663 -0.32354,0.93643 -0.49863,1.39998 -0.16384,0.42427 -0.31979,0.85146 -0.44239,1.2896 -0.10187,0.39473 -0.23082,0.78106 -0.37656,1.16154 -0.12955,0.31062 -0.21155,0.63556 -0.28862,0.962 -0.10868,0.58332 0.16462,0.21618 -1.25563,0.76966 -0.0419,0.0163 0.0284,-0.0855 0.0408,-0.1287 0.0198,-0.0689 0.0374,-0.1384 0.0561,-0.2076 0.21646,-0.76993 0.38751,-1.55034 0.62553,-2.31407 0.31928,-1.04752 0.62982,-2.09786 0.91516,-3.15516 0.19429,-0.66413 0.38042,-1.331 0.53926,-2.00457 0.1163,-0.44276 0.17263,-0.89709 0.25464,-1.34652 0.11637,-0.65433 -0.10829,-0.39265 1.29397,-0.75911 0.0665,-0.0174 -0.0575,0.12488 -0.0886,0.18616 -0.0393,0.0774 -0.0816,0.1531 -0.12247,0.22966 -0.42724,0.85386 -0.85047,1.71006 -1.25672,2.57424 -0.46163,0.97456 -0.86576,1.97338 -1.21605,2.9928 -0.27963,0.83479 -0.14961,0.7622 -1.48869,1.11603 -0.0675,0.0178 -0.0222,-0.13801 -0.0269,-0.20763 -0.007,-0.0971 -0.005,-0.19468 -0.007,-0.29202 -0.003,-0.86307 0.0514,-1.72543 0.0769,-2.58813 0.0277,-0.91036 0.0476,-1.82169 0.0958,-2.73127 0.049,-0.82299 -0.0625,-0.69331 1.30066,-1.06989 0.0693,-0.0192 0.002,0.1438 0.004,0.21569 0.002,0.10501 0.006,0.21001 0.008,0.31501 0.038,1.01269 0.14208,2.02162 0.20142,3.03338 0.0462,0.98038 0.1253,1.96003 0.21924,2.93706 0.0548,0.55355 0.1155,1.10663 0.14649,1.66215 0.0153,0.32098 0.017,0.64252 0.0164,0.96383 -0.005,0.31282 -0.004,0.62454 0.0214,0.93641 0.0236,0.36144 0.0738,0.71915 0.14035,1.07494 0.0531,0.30023 0.0944,0.59963 0.17551,0.89388 0.0747,0.23788 0.11193,0.48219 0.12632,0.73027 0.011,0.23624 0.0125,0.47278 0.0133,0.70923 0.004,0.2154 -0.001,0.42803 -0.0366,0.6407 0,0 -1.2495,0.60649 -1.2495,0.60649 v 0 c 0.0466,-0.20311 0.0496,-0.40561 0.0421,-0.61351 0.001,-0.23465 0.004,-0.46943 -0.005,-0.70396 -0.0138,-0.23865 -0.0412,-0.47591 -0.10983,-0.706 -0.0818,-0.29946 -0.13253,-0.60074 -0.17304,-0.90857 -0.0656,-0.35927 -0.12839,-0.71892 -0.14974,-1.08418 -0.0329,-0.31523 -0.0367,-0.62941 -0.0299,-0.94638 -5.3e-4,-0.32072 0.002,-0.64146 -0.007,-0.96212 -0.0172,-0.56024 -0.0528,-1.11961 -0.10299,-1.6779 -0.0781,-0.98266 -0.15113,-1.9666 -0.20151,-2.95093 -0.0541,-1.00663 -0.14858,-2.00902 -0.24044,-3.01258 -0.01,-0.10183 -0.0194,-0.20367 -0.029,-0.30551 -0.006,-0.0609 -0.0668,-0.14698 -0.0172,-0.18274 0.3845,-0.27698 0.82063,-0.47449 1.23885,-0.69731 0.0188,-0.01 -0.0264,0.0344 -0.0327,0.0547 -0.0396,0.12789 -0.0539,0.32573 -0.068,0.44546 -0.0748,0.91083 -0.10337,1.82586 -0.12411,2.73927 -0.0183,0.85275 -0.0631,1.70626 -0.0419,2.559 0.007,0.0909 0.0118,0.18194 0.0205,0.27267 0.005,0.0506 0.0617,0.12199 0.0201,0.1512 -0.38114,0.26754 -0.80998,0.4597 -1.21579,0.68809 -0.0259,0.0146 0.0593,-0.0221 0.0761,-0.0467 0.0485,-0.0709 0.18933,-0.45682 0.20312,-0.49279 0.37567,-1.02405 0.79047,-2.03248 1.25034,-3.02191 0.3883,-0.85332 0.79558,-1.69756 1.18731,-2.54914 0.0371,-0.0742 0.0734,-0.14879 0.11122,-0.22263 0.0263,-0.0514 0.0313,-0.12382 0.0811,-0.153 0.42073,-0.24649 0.87421,-0.4325 1.30577,-0.65951 0.0104,-0.006 -0.0262,-0.0182 -0.0341,-0.009 -0.0257,0.0287 -0.0559,0.21905 -0.0566,0.22238 -0.0964,0.45306 -0.16213,0.91189 -0.27434,1.36178 -0.16319,0.68378 -0.36139,1.35817 -0.57643,2.02738 -0.2924,1.05636 -0.61534,2.10396 -0.91278,3.15889 -0.23093,0.75168 -0.39497,1.51755 -0.57582,2.28237 -0.0152,0.0657 -0.0332,0.13084 -0.0455,0.19717 -0.009,0.0473 0.0226,0.11663 -0.0175,0.14319 -0.90472,0.59972 -1.40536,1.18103 -1.26566,0.41919 0.0805,-0.33137 0.14738,-0.66705 0.28508,-0.98136 0.15025,-0.37643 0.28373,-0.75809 0.38716,-1.15018 0.11734,-0.44488 0.2748,-0.87593 0.44362,-1.30373 0.16979,-0.46738 0.3389,-0.93484 0.50472,-1.40373 0.22759,-0.61126 0.52277,-1.195 0.84761,-1.7602 0.37878,-0.68382 0.8128,-1.33489 1.2464,-1.98479 0.0564,-0.083 0.33828,-0.49448 0.39846,-0.59409 0.15827,-0.26195 0.27994,-0.54467 0.42981,-0.81127 0,0 1.27211,-0.58457 1.27211,-0.58457 z"
       inkscape:connector-curvature="0" />
    <path
       style="fill:#ffffff;stroke:#f9f9f9;stroke-width:0.26458329;stroke-opacity:1"
       id="path906"
       d="m 153.10557,214.91273 c 0.0443,0.59201 0.0349,1.18613 0.0571,1.77913 0.041,0.81329 0.0651,1.62738 0.0902,2.44129 0.0124,0.43551 0.0254,0.871 0.0283,1.3067 0.005,0.0934 -0.002,0.18714 0.002,0.28057 0.0298,0.64681 0.63044,-0.11799 -1.19903,0.78439 0.1055,-0.36013 0.1192,-0.74002 0.13882,-1.11251 0.009,-0.5534 0.0507,-1.10531 0.0806,-1.65784 -0.008,-0.52658 0.0944,-1.04015 0.19254,-1.55424 0.12198,-0.72084 0.30879,-0.59747 1.40228,-0.92573 0.0504,-0.0151 0.0438,0.0959 0.0625,0.1451 0.0251,0.0662 0.0458,0.134 0.0687,0.20099 0.18818,0.57361 0.29075,1.16972 0.47545,1.74445 0.0294,0.0606 0.0834,0.22852 0.17718,0.25844 0.0678,0.0216 0.25714,-0.12169 0.19419,-0.0885 -1.10205,0.58013 -1.31767,0.87585 -0.91195,0.39797 0.34909,-0.47979 0.63121,-1.00085 0.8968,-1.52986 0.36113,-0.77935 0.42705,-0.70324 1.54734,-1.2341 0.0379,-0.0179 0.0734,0.0453 0.0973,0.0797 0.0331,0.0476 0.046,0.10635 0.0691,0.15953 0.11844,0.42624 0.1903,0.86197 0.2466,1.30008 0.0169,0.0798 0.0229,0.47887 0.11656,0.51571 0.02,0.008 0.0582,-0.063 0.0914,-0.11443 -1.9189,1.13602 -1.14897,0.74201 -0.79842,0.33712 0.15257,-0.17622 0.28512,-0.37068 0.42198,-0.55899 0.44068,-0.61531 0.73274,-0.72379 1.62064,-1.11048 0.0359,-0.0156 0.14194,0.18803 0.15006,0.20225 0.0879,0.11129 0.0714,0.48558 0.16541,0.56029 0.008,0.007 0.0213,-0.002 0.032,-0.003 0.26362,-0.43948 0.0474,-0.0505 -1.05399,0.54063 -0.0431,0.0232 0.0796,-0.0572 0.11671,-0.0892 0.12774,-0.11034 0.23299,-0.24278 0.33929,-0.37287 0.15175,-0.21319 0.27925,-0.44212 0.44229,-0.64738 0.39598,-0.38676 0.13981,-0.14609 1.34188,-0.74228 0.0318,-0.0158 0.20468,0.0326 0.2337,0.0572 0.0217,0.0184 0.0343,0.0453 0.0515,0.068 0.0853,0.16216 -0.10084,0.29385 -0.0376,0.45278 0.10833,0.11619 0.24804,0.2016 0.39099,0.26869 0.23036,0.06 0.4706,0.0942 0.70745,0.1255 0.0509,0.005 0.1017,0.0102 0.15256,0.0152 0.0367,0.004 0.0735,0.006 0.11014,0.0105 0.021,0.002 0.0449,-0.002 0.0629,0.009 0.0199,0.0124 0.0609,0.0431 0.0417,0.0565 -1.14764,0.79922 -0.75938,0.79091 -1.34875,0.77169 -0.56197,-0.0181 -1.12284,-0.077 -1.68128,-0.14176 -0.49221,-0.0598 -0.9852,-0.11179 -1.48057,-0.13492 -0.37815,-0.0133 -0.75662,-0.0122 -1.13496,-0.0138 -0.54315,-0.002 -1.08629,-0.006 -1.62945,-0.003 -0.46745,-0.0224 -0.9339,-0.0589 -1.40163,-0.076 -0.38986,-0.0176 -0.77775,-0.0154 -1.16629,0.0184 -0.63732,0.0305 -1.26138,0.18303 -1.86359,0.38609 0.21185,-0.1626 -0.97014,0.51125 -0.72559,0.38731 0.2725,-0.13813 0.5227,-0.32123 0.80472,-0.4387 0.12139,-0.0506 -0.21495,0.15195 -0.3166,0.23537 -0.25022,0.20533 -0.27508,0.25237 -0.48,0.48716 -0.33076,0.42165 -0.46968,0.92964 -0.56499,1.44693 -0.0702,0.48756 -0.12854,0.97398 -0.12469,1.46693 -0.0109,0.43603 0.0736,0.8085 0.22265,1.21295 0.0728,0.24165 0.20113,0.46178 0.291,0.69615 0.0321,0.0838 0.0892,0.28469 0.11416,0.3696 0.12422,0.37386 0.2153,0.75675 0.28414,1.14432 0.0377,0.40891 0.10031,0.81508 0.13731,1.22399 0.0309,0.39614 0.0348,0.79369 0.042,1.19078 0.004,0.28774 0.005,0.57548 0.006,0.86324 -0.0142,0.31173 0.0623,0.61675 0.12509,0.91977 0.10442,0.33658 0.21656,0.6683 0.28214,1.01535 0.0261,0.1452 0.0398,0.29201 0.0526,0.4388 0,0 -1.23432,0.64026 -1.23432,0.64026 v 0 c -0.008,-0.14346 -0.0172,-0.287 -0.0394,-0.42916 -0.0595,-0.3473 -0.16828,-0.67768 -0.27891,-1.01136 -0.0708,-0.30893 -0.1478,-0.62386 -0.14721,-0.94205 0.001,-0.28892 0.004,-0.57783 0.004,-0.86674 5.3e-4,-0.39424 -0.004,-0.78887 -0.0342,-1.18215 -0.0366,-0.40562 -0.0897,-0.80956 -0.1309,-1.21463 -0.0649,-0.38262 -0.15628,-0.76069 -0.27756,-1.12954 -0.10917,-0.36276 -0.26195,-0.7052 -0.39751,-1.05865 -0.16191,-0.41921 -0.25375,-0.80467 -0.238,-1.25945 -10e-4,-0.12365 -0.006,-0.39569 2.6e-4,-0.51748 0.016,-0.32632 0.0902,-0.64655 0.11441,-0.97205 0.0879,-0.53803 0.22225,-1.07055 0.54839,-1.51847 0.071,-0.0866 0.13701,-0.17762 0.21312,-0.2598 0.15166,-0.16376 0.39541,-0.38468 0.58322,-0.50322 0.71187,-0.44932 1.44037,-0.92339 2.22138,-1.25531 0.62281,-0.19718 1.26229,-0.34474 1.91634,-0.38583 0.38961,-0.0285 0.7792,-0.0184 1.1693,-2.7e-4 0.46375,0.0191 0.92595,0.0591 1.38965,0.0781 0.54706,0.002 1.09407,-0.003 1.64111,-0.005 0.38107,-0.001 0.76244,-0.003 1.14311,0.0174 0.48818,0.0319 0.97218,0.10021 1.45751,0.16036 0.56763,0.0592 1.13873,0.11779 1.71016,0.0986 0.57849,-0.0438 0.0437,-0.0231 -1.0036,0.75803 -0.0149,0.0111 0.0428,0.0272 0.0344,0.0437 -5.3e-4,0.001 -0.29961,-0.0574 -0.30886,-0.0425 -0.24924,-0.036 -0.51045,-0.0577 -0.74321,-0.15783 -0.1654,-0.0916 -0.3319,-0.19095 -0.44261,-0.34854 -0.0591,-0.12573 -0.10163,-0.33259 0.0507,-0.4172 -0.0726,-0.0476 -0.27962,0.0464 -0.19649,-0.004 1.0145,-0.61968 1.55398,-0.82445 1.07209,-0.63802 -0.20924,0.16321 -0.32143,0.42501 -0.4661,0.64054 -0.43406,0.55233 -1.10238,1.34515 -1.8537,1.22734 -0.18563,-0.1757 -0.12549,-0.39738 -0.22613,-0.61908 -0.26151,-0.4071 -0.97958,0.45825 1.06759,-0.73051 0.0383,-0.0223 -0.0757,0.0472 -0.10812,0.0774 -0.0827,0.0772 -0.19541,0.23084 -0.26154,0.31611 -0.1811,0.24605 -0.34897,0.5098 -0.5522,0.73845 -0.35994,0.40494 -1.1313,0.72766 -1.42021,0.90129 -0.0425,0.002 -0.0864,0.0174 -0.12756,0.007 -0.19969,-0.0526 -0.19213,-0.4939 -0.20909,-0.64279 -0.0436,-0.4258 -0.10926,-0.84922 -0.24233,-1.25754 -0.01,-0.024 -0.0108,-0.0535 -0.0288,-0.072 -0.007,-0.008 -0.0191,0.009 -0.0287,0.0131 0.3726,-0.22475 0.74521,-0.4495 1.11782,-0.67425 0.0371,-0.0213 -0.0671,0.0542 -0.0946,0.087 -0.0417,0.0498 -0.0798,0.10301 -0.11197,0.15942 -0.0443,0.0777 -0.0777,0.16108 -0.11659,0.24162 -0.26823,0.52862 -0.54093,1.05358 -0.87385,1.54565 -0.39752,0.60667 -0.131,0.25925 -1.44717,0.99829 -0.0801,0.045 -0.2163,0.006 -0.28128,-0.0432 -0.10708,-0.0818 -0.13713,-0.20846 -0.18534,-0.32538 -0.16985,-0.57497 -0.2722,-1.1688 -0.48384,-1.73101 -0.0247,-0.0614 -0.0471,-0.12384 -0.0742,-0.18424 -0.0169,-0.0377 -0.092,-0.0866 -0.0578,-0.10968 0.38256,-0.25807 0.81513,-0.43355 1.21203,-0.66896 0.021,-0.0125 -0.0523,-0.0197 -0.0729,-0.007 -0.0819,0.0516 -0.0891,0.21737 -0.10208,0.28249 -0.10776,0.50884 -0.22268,1.01905 -0.21537,1.54279 -0.0247,0.55088 -0.0702,1.1008 -0.0718,1.65256 -0.0133,0.37642 -0.0301,0.75332 -0.0881,1.12595 -1.26171,0.70212 -1.31827,1.12672 -1.30941,0.16615 0.002,-0.44059 0.0101,-0.88116 0.007,-1.32177 -0.006,-0.81531 -0.0287,-1.63021 -0.0774,-2.44421 -0.0285,-0.57754 -0.0276,-1.15913 -0.11065,-1.7323 0,0 1.23983,-0.65774 1.23983,-0.65774 z"
       inkscape:connector-curvature="0" />
    <path
       style="fill:#ffffff;stroke:#f9f9f9;stroke-width:0.26458329;stroke-opacity:1"
       id="path908"
       d="m 182.46183,216.48135 c -0.13119,0.32213 -0.19375,0.66643 -0.2584,1.00663 -0.081,0.28286 -0.0285,0.59257 -0.12232,0.87053 -1.3523,0.75285 -1.39872,1.01643 -1.27142,0.0167 0.0515,-0.23368 0.0934,-0.47502 0.18847,-0.69635 0.0153,-0.0356 0.0224,-0.0822 0.0557,-0.1019 0.41875,-0.24703 0.85694,-0.45951 1.28541,-0.68927 0.27829,0.25911 0.41148,0.66297 0.55801,1.0075 0.0689,0.13322 0.23034,0.67233 0.48575,0.5488 0.0294,-0.0142 0.0488,-0.0436 0.0731,-0.0654 -1.72752,1.01688 -1.16942,0.82483 -0.90428,0.29164 0.11262,-0.22648 0.19398,-0.46537 0.27464,-0.70439 0.11941,-0.38195 0.19264,-0.77491 0.25846,-1.1688 0.42308,-0.176 0.82685,-0.40858 1.26923,-0.528 0.0584,-0.0158 0.0125,0.12033 0.0177,0.18058 0.0308,0.35074 0.0622,0.69978 0.1104,1.04867 0.0646,0.17948 0.0294,0.6513 0.16103,0.7891 0.0372,0.0389 0.0415,-0.0355 0.0537,-0.0978 -1.48849,0.91939 -1.20708,0.88861 -0.98742,0.21388 0.0722,-0.22166 0.12721,-0.44786 0.18633,-0.6732 0.17154,-0.64769 0.18468,-0.47462 1.32299,-0.95871 0.0497,-0.0211 0.19102,0.4766 0.20198,0.50959 0.177,0.43657 0.21486,0.93253 0.46382,1.33719 0.0264,0.008 0.052,0.0292 0.0792,0.0241 0.0299,-0.006 0.10112,-0.0672 0.0742,-0.053 -0.36539,0.19369 -0.72066,0.40659 -1.09048,0.59167 -0.0463,0.0232 0.0808,-0.0655 0.11562,-0.10379 0.092,-0.10106 0.16607,-0.22403 0.24057,-0.33739 0.0855,-0.0525 0.27436,-0.56361 0.33866,-0.59859 1.31689,-0.71636 1.14476,-1.08503 1.32845,-0.45332 0.0404,0.52933 0.0142,1.06182 0.0937,1.58787 0.0122,-0.10065 0.031,0.19418 0.0794,0.15973 0.0225,-0.016 0.0411,-0.093 0.0161,-0.0812 -0.38883,0.18344 -0.74128,0.44066 -1.13654,0.60978 -0.0541,0.0232 0.0564,-0.10356 0.0798,-0.1576 0.0293,-0.0676 0.052,-0.13791 0.078,-0.20687 0.1258,-0.38617 0.19714,-0.78707 0.28033,-1.18385 0.42594,-0.17752 0.83326,-0.40884 1.27782,-0.53256 0.0555,-0.0155 0.0136,0.11451 0.0177,0.172 0.005,0.0661 0.007,0.13234 0.009,0.19855 0.006,0.20373 0.006,0.40764 0.01,0.61143 0.003,0.0276 0.0334,0.0713 0.008,0.0829 -0.40428,0.18707 -0.80844,0.39444 -1.24379,0.48882 -0.0718,0.0156 0.003,-0.14683 0.005,-0.22024 0.007,-0.33679 0.01,-0.67319 0.01,-1.01007 -0.005,-0.3039 0.009,-0.60889 -0.0107,-0.91254 -0.003,-0.049 -0.006,-0.0984 -0.0165,-0.14634 -0.003,-0.0137 -0.0211,-0.049 -0.0234,-0.0351 -0.007,0.0404 0.006,0.0816 0.009,0.12245 1.56968,-0.95827 1.19839,-0.893 0.9641,-0.26471 -0.0898,0.24076 -0.16015,0.48756 -0.23338,0.73365 -0.0609,0.2275 -0.12035,0.45536 -0.17915,0.6834 -0.007,0.0269 -0.0572,0.2259 -0.0618,0.228 -0.4133,0.19205 -0.84364,0.34504 -1.26546,0.51755 -0.005,-0.15272 0.0123,-0.30526 0.0111,-0.45788 -2.1e-4,-0.0272 -0.003,-0.0545 -0.006,-0.0815 -0.001,-0.0102 -0.0129,-0.039 -0.008,-0.0299 0.0111,0.021 0.0181,0.044 0.0272,0.066 0.40096,-0.21674 0.79376,-0.44928 1.20287,-0.65021 0.0293,-0.0144 -0.0329,0.0564 -0.0501,0.0841 -0.004,0.007 -0.075,0.12075 -0.093,0.13041 -0.42043,0.22553 -0.83036,0.47679 -1.27395,0.65244 -0.0429,0.017 -0.043,-0.0816 -0.0645,-0.12246 -0.0852,-0.3251 -0.0559,-0.66488 -0.0896,-0.99659 0.0163,-0.2321 -0.0359,-0.0323 -0.0224,-0.0387 0.40345,-0.19286 0.78675,-0.42763 1.19652,-0.6067 0.0404,-0.0177 -0.0476,0.0743 -0.0678,0.11348 -0.0528,0.10226 -0.11886,0.2644 -0.16291,0.36849 -0.085,0.20473 -0.13225,0.42157 -0.18914,0.63492 -0.002,0.007 -0.0557,0.20892 -0.0649,0.21435 -0.4083,0.24158 -0.83312,0.45404 -1.24968,0.68106 -0.0193,-0.0517 -0.0456,-0.10136 -0.0578,-0.15519 -0.0571,-0.251 -0.01,-0.58585 -0.0472,-0.85772 -0.42186,-0.21187 -0.0828,-0.0358 1.20633,-0.60195 0.032,-0.014 -0.0443,0.0543 -0.0635,0.0835 -0.12621,0.19232 -0.21617,0.40141 -0.30844,0.61119 -0.16504,0.40716 -0.32939,0.81561 -0.51317,1.21477 -0.25083,0.48216 -1.09175,1.26277 -1.43825,0.71873 -0.0983,-0.15431 -0.12385,-0.36879 -0.16162,-0.54277 -0.0486,-0.37031 -0.13396,-0.74655 -0.0938,-1.1213 0.016,-0.0376 0.0258,-0.0785 0.048,-0.11279 0.0203,-0.0314 0.0452,-0.0622 0.0776,-0.0809 0.94431,-0.54684 0.989,-0.70115 1.7345,-0.7999 0.3932,-0.0393 0.78918,-0.0323 1.18383,-0.0344 0.44968,-1.4e-4 0.89935,2.7e-4 1.34903,-0.002 0.0594,0.01 0.1216,0.008 0.17814,0.029 0.27753,0.10096 0.43293,0.37977 0.55033,0.62895 0.10695,0.25077 0.15831,0.51796 0.22115,0.78147 0.0685,0.29476 0.0878,0.59879 0.10249,0.90028 0.012,0.2803 0.0122,0.56093 0.0131,0.84144 -7e-5,0.24509 1.2e-4,0.49018 10e-4,0.73527 -0.002,0.22977 -5.2e-4,0.45951 5.3e-4,0.68927 0.002,0.1996 7e-5,0.39918 -5.3e-4,0.59878 5.3e-4,0.22556 0.001,0.45108 -0.002,0.67662 -0.002,0.28278 5.3e-4,0.56557 -3e-5,0.84835 -0.0154,0.25565 0.0324,0.50687 0.0525,0.7605 0.0238,0.30361 0.0374,0.60773 0.0386,0.91223 0.019,0.31434 0.0586,0.62651 0.078,0.9409 0.0146,0.27189 0.0203,0.54428 0.0211,0.81655 0.001,0.22529 0.002,0.45058 0.002,0.67587 -0.0115,0.21435 0.005,0.42473 0.0372,0.63635 0.0318,0.18035 0.0463,0.36234 0.0543,0.54507 0.005,0.15783 0.006,0.31571 0.005,0.4736 -1.4e-4,0.0271 -2.7e-4,0.0542 -5.3e-4,0.0813 0,0 -1.24838,0.63587 -1.24838,0.63587 v 0 c -6e-5,-0.027 -1.3e-4,-0.054 -1.9e-4,-0.0809 -2.7e-4,-0.15656 0.001,-0.31314 -0.002,-0.46968 -0.005,-0.17842 -0.0153,-0.35661 -0.0429,-0.5332 -0.0323,-0.2176 -0.0624,-0.43348 -0.0478,-0.65438 7.9e-4,-0.22586 0.003,-0.45171 0.003,-0.67756 -0.002,-0.27082 1.1e-4,-0.54175 -0.013,-0.81235 -0.0168,-0.31647 -0.0508,-0.63137 -0.0802,-0.94685 -0.006,-0.30083 -0.008,-0.60207 -0.0341,-0.90205 -0.0273,-0.25661 -0.0789,-0.51105 -0.0613,-0.7704 -5.3e-4,-0.28277 0.002,-0.56554 -4e-5,-0.84831 -0.004,-0.22469 -0.003,-0.44936 -0.002,-0.67408 -8e-4,-0.19938 -0.002,-0.39876 -5.3e-4,-0.59815 10e-4,-0.23007 0.003,-0.46012 10e-4,-0.6902 0.001,-0.2457 0.002,-0.49139 0.003,-0.73709 8e-4,-0.27926 0.002,-0.55859 -0.007,-0.83777 -0.0121,-0.29268 -0.0249,-0.58793 -0.0963,-0.87338 -0.0623,-0.25502 -0.0999,-0.5165 -0.20224,-0.7608 -0.12828,-0.28366 -0.29332,-0.5281 -0.6363,-0.53048 -0.44736,-0.003 -0.89475,-0.005 -1.34212,-0.002 -0.39531,0.004 -0.79272,0.004 -1.18482,0.0608 -0.11717,0.0216 -0.16919,0.0284 -0.28303,0.06 -0.0441,0.0122 -0.16956,0.0656 -0.13086,0.0412 0.35672,-0.22469 0.72866,-0.42441 1.08833,-0.64434 0.0292,-0.0179 -0.0656,0.0209 -0.0956,0.0373 -0.0279,0.0152 -0.0511,0.0378 -0.0766,0.0567 -0.0969,0.35009 0.0127,0.72832 0.0524,1.07994 0.0367,0.16075 0.0426,0.21103 0.097,0.36099 0.0116,0.0319 0.0211,0.0657 0.0413,0.0929 0.006,0.007 0.0355,-0.005 0.0277,2.7e-4 -1.19996,0.74924 -1.41934,0.99272 -1.03344,0.5915 0.19763,-0.39458 0.36134,-0.80742 0.52915,-1.21521 0.13572,-0.33006 1.0014,-2.52993 1.63963,-1.30841 0.014,0.17403 0.01,0.3477 0.018,0.52217 0.005,0.10537 0.0267,0.2099 0.0263,0.31539 -3e-5,0.007 -0.0105,0.009 -0.0157,0.0138 -2.26099,1.31478 -1.24287,0.99957 -1.08189,0.50337 0.0694,-0.21403 0.0932,-0.44091 0.17979,-0.6499 0.0471,-0.12251 0.1032,-0.24151 0.14839,-0.36474 0.0168,-0.0456 -5.2e-4,-0.11377 0.0403,-0.14018 0.24458,-0.15819 1.25218,-1.21315 1.3451,-0.54868 0.0253,0.3141 0.007,0.63412 0.0785,0.94302 0.13728,0.44996 0.008,0.008 -1.18232,0.68775 -0.0189,0.0108 0.0412,-0.0157 0.0587,-0.0286 0.0221,-0.0163 0.0419,-0.0362 0.0587,-0.058 0.0177,-0.0229 0.0193,-0.0597 0.0439,-0.075 0.40841,-0.2551 0.83076,-0.48718 1.24614,-0.73077 0.0164,0.0238 0.0367,0.0453 0.0491,0.0713 0.0665,0.14045 -0.0374,0.43278 0.001,0.58983 -0.41556,0.23749 -0.82416,0.4876 -1.24668,0.71246 -0.0248,0.0132 0.0326,-0.0464 0.0437,-0.0723 0.11455,-0.26603 0.1492,-0.56372 0.23607,-0.83835 0.0738,-0.24634 0.14647,-0.49242 0.22471,-0.73738 0.0114,-0.0358 0.10526,-0.35283 0.12891,-0.37054 0.39865,-0.29852 0.83085,-0.54941 1.24627,-0.82411 0.0392,0.0224 0.0861,0.0347 0.11747,0.0671 0.068,0.0703 0.0301,0.42342 0.0289,0.49099 -0.004,0.20982 -0.002,0.47224 -0.002,0.68063 5.3e-4,0.33263 0.003,0.66471 0.0141,0.99718 0.002,0.071 0.0631,0.16838 0.008,0.21285 -0.38032,0.3056 -0.81413,0.53962 -1.24014,0.77743 -0.0265,0.0148 0.006,-0.0604 0.01,-0.0905 0.005,-0.26455 0.007,-0.53067 -0.0154,-0.79461 -0.004,-0.0484 -0.0562,-0.11627 -0.0168,-0.14464 0.38404,-0.2767 0.81455,-0.48239 1.22182,-0.72359 -0.0883,0.13264 -0.10332,0.30445 -0.13752,0.45717 -0.0547,0.24452 -0.10448,0.4904 -0.17251,0.73169 -0.0227,0.0696 -0.046,0.13915 -0.0682,0.20897 -0.0189,0.0593 -0.005,0.14143 -0.0551,0.17847 -0.0336,0.0249 -1.00462,1.07596 -1.36713,0.73878 -0.049,-0.0456 -0.0732,-0.18148 -0.0861,-0.22905 -0.0561,-0.52134 -0.045,-1.04636 -0.10174,-1.56739 -0.0516,-0.52622 -0.0312,-0.0891 1.18071,-0.75661 0.029,-0.016 -0.0524,0.0418 -0.0717,0.0687 -0.1168,0.16313 -0.17383,0.36518 -0.2943,0.52653 -0.47732,0.77309 -0.39898,0.61402 -1.64227,1.23885 -0.0387,0.0194 -0.0885,-0.007 -0.12731,-0.026 -0.0418,-0.0206 -0.0715,-0.0599 -0.1073,-0.0898 -0.22282,-0.42763 -0.27872,-0.91865 -0.46496,-1.36237 -0.027,-0.0676 -0.0554,-0.13457 -0.0809,-0.20271 -0.016,-0.0427 -0.0263,-0.0875 -0.0435,-0.12978 -0.003,-0.006 -0.0212,-0.0107 -0.0153,-0.0144 1.71913,-1.07392 1.24409,-1.04036 1.05437,-0.46092 -0.0815,0.3001 -0.15893,0.60018 -0.25125,0.89722 -0.0184,0.0591 -0.007,0.13867 -0.0549,0.17748 -0.38835,0.3123 -0.81824,0.5691 -1.22736,0.85365 -0.0317,-0.009 -0.0668,-0.01 -0.0951,-0.0264 -0.20143,-0.11948 -0.173,-0.70126 -0.22753,-0.90843 -0.0487,-0.3461 -0.0827,-0.69392 -0.12939,-1.04025 -0.008,-0.0557 -0.0722,-0.13297 -0.0271,-0.1665 0.38283,-0.28429 0.821,-0.48529 1.23149,-0.72793 -0.0651,0.13963 -0.0823,0.28903 -0.11312,0.43924 -0.0516,0.25092 -0.10874,0.50095 -0.17838,0.74752 -0.0973,0.30402 -0.19472,0.61118 -0.3399,0.89626 -0.0267,0.0525 -0.0347,0.12208 -0.0829,0.15595 -0.41241,0.29014 -0.85431,0.53592 -1.28146,0.80389 -0.0386,0.003 -0.0774,0.0136 -0.11571,0.008 -0.31054,-0.0411 -0.42277,-0.45309 -0.54014,-0.68222 -0.0927,-0.20891 -0.26524,-0.68686 -0.43415,-0.83112 -0.0159,-0.0136 -0.0395,-0.0138 -0.0592,-0.0207 0.37669,-0.22788 0.75338,-0.45577 1.13007,-0.68366 -0.0284,0.0218 -0.0648,0.0359 -0.0851,0.0654 -0.12445,0.17988 -0.1327,0.45877 -0.20014,0.6621 -0.0878,0.85968 -0.0113,0.42852 -1.26528,1.14988 0.0168,-0.008 0.0381,-0.009 0.0505,-0.0229 0.10918,-0.12052 0.0606,-0.62038 0.12528,-0.79538 0.063,-0.34288 0.12315,-0.68785 0.23078,-1.02024 0,0 1.26747,-0.58953 1.26747,-0.58953 z"
       inkscape:connector-curvature="0" />
    <path
       style="fill:#ffffff;stroke:#f9f9f9;stroke-width:0.26458329;stroke-opacity:1"
       id="path910"
       d="m 180.17531,218.31192 c -0.13165,-0.21162 -0.28423,-0.40344 -0.46312,-0.57691 -0.12039,-0.0979 -0.26105,-0.17308 -0.40745,-0.22455 -0.12879,-0.0192 -0.24476,-0.0778 -0.37168,-0.10576 -0.13393,-0.0187 -0.26373,-0.0489 -0.37745,0.0367 0.38806,-0.22087 0.77672,-0.44072 1.1642,-0.66261 0.023,-0.0131 -0.0727,0.0265 -0.0613,0.0504 0.0183,0.0386 0.0493,0.0697 0.0738,0.10469 0.12381,0.17524 0.24234,0.35205 0.41383,0.48431 0.12753,0.0899 0.2478,0.0455 0.38593,0.0187 0.0563,-0.0316 0.11337,-0.0574 0.17426,-0.0783 0,0 -1.10581,0.86581 -1.10581,0.86581 v 0 c -0.0623,0.0254 -0.12397,0.0508 -0.19203,0.0561 -0.16693,0.0206 -0.31464,-0.012 -0.44801,-0.12142 -0.16749,-0.15124 -0.29831,-0.33321 -0.43431,-0.51223 -0.0507,-0.0682 -0.12038,-0.14104 -0.1376,-0.22758 -0.0992,-0.49823 2.59787,-1.20823 1.27056,-0.84512 0.14456,-0.021 0.29025,-5.3e-4 0.43139,0.035 0.12747,0.0394 0.25449,0.0802 0.38129,0.12143 0.15533,0.0727 0.30648,0.15329 0.42836,0.27689 0.17616,0.1828 0.33093,0.37915 0.47929,0.58491 0,0 -1.20409,0.71967 -1.20409,0.71967 z"
       inkscape:connector-curvature="0" />
  </g>
</svg>
