<?xml version="1.0" encoding="UTF-8" standalone="no"?>
<!-- Generator: Adobe Illustrator 16.0.0, SVG Export Plug-In . SVG Version: 6.00 Build 0)  -->

<svg
   xmlns:dc="http://purl.org/dc/elements/1.1/"
   xmlns:cc="http://creativecommons.org/ns#"
   xmlns:rdf="http://www.w3.org/1999/02/22-rdf-syntax-ns#"
   xmlns:svg="http://www.w3.org/2000/svg"
   xmlns="http://www.w3.org/2000/svg"
   xmlns:sodipodi="http://sodipodi.sourceforge.net/DTD/sodipodi-0.dtd"
   xmlns:inkscape="http://www.inkscape.org/namespaces/inkscape"
   version="1.1"
   id="Capa_1"
   x="0px"
   y="0px"
   width="48.832px"
   height="48.832px"
   viewBox="0 0 48.832 48.832"
   style="enable-background:new 0 0 48.832 48.832;"
   xml:space="preserve"
   sodipodi:docname="speed.svg"
   inkscape:version="0.92.4 (unknown)"><metadata
   id="metadata50"><rdf:RDF><cc:Work
       rdf:about=""><dc:format>image/svg+xml</dc:format><dc:type
         rdf:resource="http://purl.org/dc/dcmitype/StillImage" /><dc:title></dc:title></cc:Work></rdf:RDF></metadata><defs
   id="defs48" /><sodipodi:namedview
   pagecolor="#ffffff"
   bordercolor="#666666"
   borderopacity="1"
   objecttolerance="10"
   gridtolerance="10"
   guidetolerance="10"
   inkscape:pageopacity="0"
   inkscape:pageshadow="2"
   inkscape:window-width="1366"
   inkscape:window-height="709"
   id="namedview46"
   showgrid="false"
   inkscape:zoom="3.4173738"
   inkscape:cx="12.314608"
   inkscape:cy="23.293806"
   inkscape:window-x="0"
   inkscape:window-y="36"
   inkscape:window-maximized="1"
   inkscape:current-layer="Capa_1" />
<g
   inkscape:groupmode="layer"
   id="layer1"
   inkscape:label="back"><path
     sodipodi:type="star"
     style="opacity:1;fill:#004749;fill-opacity:1;stroke:#efefef;stroke-width:2.40064597;stroke-linecap:butt;stroke-linejoin:round;stroke-miterlimit:4;stroke-dasharray:none;stroke-opacity:1;paint-order:stroke fill markers"
     id="path861"
     sodipodi:sides="8"
     sodipodi:cx="24.812084"
     sodipodi:cy="24.691849"
     sodipodi:r1="24.93438"
     sodipodi:r2="23.036364"
     sodipodi:arg1="-0.3929076"
     sodipodi:arg2="-0.00020852257"
     inkscape:flatsided="true"
     inkscape:rounded="0"
     inkscape:randomized="0"
     d="m 47.846457,15.145071 0.004,19.083948 -13.491575,13.497203 -19.083947,0.004 L 1.7777114,34.238626 1.7737321,15.154679 15.265307,1.657476 34.349254,1.6534966 Z" /></g>
<g
   id="g15">
</g>
<g
   id="g17">
</g>
<g
   id="g19">
</g>
<g
   id="g21">
</g>
<g
   id="g23">
</g>
<g
   id="g25">
</g>
<g
   id="g27">
</g>
<g
   id="g29">
</g>
<g
   id="g31">
</g>
<g
   id="g33">
</g>
<g
   id="g35">
</g>
<g
   id="g37">
</g>
<g
   id="g39">
</g>
<g
   id="g41">
</g>
<g
   id="g43">
</g>
<g
   id="g1072"
   transform="matrix(0.06600415,0,0,0.06600415,10.130199,7.6304416)"
   style="fill:#ffffff;fill-opacity:1"><g
     id="g1007"
     style="fill:#ffffff;fill-opacity:1">
	<g
   id="g1005"
   style="fill:#ffffff;fill-opacity:1">
		<path
   id="path987"
   d="m 228.625,376.518 c 8.777,3.118 16.727,2.823 24.466,-2.585 15.884,-11.095 27.481,-34.226 35.987,-51.028 24.796,-48.972 34.312,-109.542 43.869,-163.227 3.29,-18.491 2.833,-44.536 11.43,-61.608 2.275,-4.517 1.062,-8.788 -1.843,-11.778 -5.027,-5.738 -15.793,-6.394 -19.956,1.457 -18.21,34.32 -45.642,65.201 -66.182,98.36 -21.094,34.033 -39.641,69.965 -50.978,108.481 -4.471,15.193 -16.315,44.102 -10.831,60.047 2.621,7.627 26.505,19.2 34.038,21.881 z m -1.185,-73.865 c 5.299,-18.56 12.631,-36.638 21.01,-54.01 8.485,-17.587 18.205,-34.664 28.533,-51.231 5.185,-8.317 10.501,-16.572 15.95,-24.72 4.042,-6.037 14.812,-16.452 16.011,-23.483 -5.291,31.009 -9.562,62.353 -17.098,92.711 -8.16,32.905 -15.874,81.628 -43.854,104.312 -7.165,5.81 -22.627,7.5 -28.32,-0.965 -0.208,-0.31 -0.406,-0.635 -0.589,-0.97 -5.963,-11.1 5.269,-30.818 8.357,-41.644 z"
   inkscape:connector-curvature="0"
   style="fill:#ffffff;fill-opacity:1" />
		<path
   id="path989"
   d="m 11.631,379.798 c 23.795,0.056 47.568,0.808 71.348,1.6 15.516,0.523 15.47,-23.531 0,-24.049 -23.78,-0.793 -47.553,-1.544 -71.348,-1.6 -15.511,-0.036 -15.506,24.014 0,24.049 z"
   inkscape:connector-curvature="0"
   style="fill:#ffffff;fill-opacity:1" />
		<path
   id="path991"
   d="m 14.383,257.901 c 22.051,10.953 44.483,21.119 66.537,32.067 13.842,6.875 26.03,-13.868 12.136,-20.77 C 71.002,258.25 48.571,248.084 26.519,237.131 12.677,230.267 0.487,251.005 14.383,257.901 Z"
   inkscape:connector-curvature="0"
   style="fill:#ffffff;fill-opacity:1" />
		<path
   id="path993"
   d="m 114.562,191.09 c 10.412,11.538 27.368,-5.527 17.008,-17.008 -14.19,-15.724 -28.723,-31.121 -43.287,-46.497 -10.687,-11.278 -27.665,5.756 -17.009,17.009 14.564,15.371 29.102,30.772 43.288,46.496 z"
   inkscape:connector-curvature="0"
   style="fill:#ffffff;fill-opacity:1" />
		<path
   id="path995"
   d="m 238.512,156.933 c -1.617,-26.712 -3.164,-53.417 -4.009,-80.166 -0.49,-15.47 -24.544,-15.518 -24.05,0 0.846,26.749 2.392,53.458 4.009,80.166 0.93,15.407 24.985,15.496 24.05,0 z"
   inkscape:connector-curvature="0"
   style="fill:#ffffff;fill-opacity:1" />
		<path
   id="path997"
   d="m 370.473,205.52 c 12.152,-12.957 24.334,-25.896 36.877,-38.479 10.958,-10.994 -6.048,-28 -17.006,-17.009 -12.543,12.583 -24.725,25.52 -36.877,38.479 -10.592,11.298 6.378,28.345 17.006,17.009 z"
   inkscape:connector-curvature="0"
   style="fill:#ffffff;fill-opacity:1" />
		<path
   id="path999"
   d="m 385.22,295.62 c 24.582,0.736 49.165,0.803 73.758,0.803 15.508,0 15.508,-24.05 0,-24.05 -24.593,0 -49.176,-0.065 -73.758,-0.802 -15.518,-0.462 -15.472,23.587 0,24.049 z"
   inkscape:connector-curvature="0"
   style="fill:#ffffff;fill-opacity:1" />
		<path
   id="path1001"
   d="m 452.559,381.402 c -25.339,-0.935 -50.063,-4.174 -74.564,-10.796 -14.996,-4.047 -21.354,19.154 -6.394,23.191 26.517,7.165 53.542,10.639 80.963,11.654 15.514,0.574 15.452,-23.474 -0.005,-24.049 z"
   inkscape:connector-curvature="0"
   style="fill:#ffffff;fill-opacity:1" />
		<path
   id="path1003"
   d="m 241.372,335.178 c 16.768,0 16.768,-25.999 0,-25.999 -16.771,0 -16.771,25.999 0,25.999 z"
   inkscape:connector-curvature="0"
   style="fill:#ffffff;fill-opacity:1" />
	</g>
</g><g
     id="g1009"
     style="fill:#ffffff;fill-opacity:1">
</g><g
     id="g1011"
     style="fill:#ffffff;fill-opacity:1">
</g><g
     id="g1013"
     style="fill:#ffffff;fill-opacity:1">
</g><g
     id="g1015"
     style="fill:#ffffff;fill-opacity:1">
</g><g
     id="g1017"
     style="fill:#ffffff;fill-opacity:1">
</g><g
     id="g1019"
     style="fill:#ffffff;fill-opacity:1">
</g><g
     id="g1021"
     style="fill:#ffffff;fill-opacity:1">
</g><g
     id="g1023"
     style="fill:#ffffff;fill-opacity:1">
</g><g
     id="g1025"
     style="fill:#ffffff;fill-opacity:1">
</g><g
     id="g1027"
     style="fill:#ffffff;fill-opacity:1">
</g><g
     id="g1029"
     style="fill:#ffffff;fill-opacity:1">
</g><g
     id="g1031"
     style="fill:#ffffff;fill-opacity:1">
</g><g
     id="g1033"
     style="fill:#ffffff;fill-opacity:1">
</g><g
     id="g1035"
     style="fill:#ffffff;fill-opacity:1">
</g><g
     id="g1037"
     style="fill:#ffffff;fill-opacity:1">
</g></g></svg>